<svg xmlns="http://www.w3.org/2000/svg" xmlns:xlink="http://www.w3.org/1999/xlink" viewBox="0 0 841.89 841.89"><defs><style>.cls-1{fill:none;}.cls-2{fill:#37636d;}.cls-3{isolation:isolate;}.cls-14,.cls-15,.cls-16,.cls-20,.cls-25,.cls-4,.cls-97{mix-blend-mode:multiply;}.cls-5{clip-path:url(#clip-path);}.cls-6{fill:#a3a3a3;}.cls-7{fill:#dadada;}.cls-8{clip-path:url(#clip-path-2);}.cls-9{fill:#d9d9d9;}.cls-10,.cls-20{fill:#bdbdbd;}.cls-11{fill:#6e6e6e;}.cls-12{fill:#e8e8e8;}.cls-13,.cls-22{fill:#a1a1a1;}.cls-14{fill:#c9c9c9;}.cls-15{fill:#d4d4d4;}.cls-16{fill:#e3e3e3;}.cls-17{fill:#cecece;}.cls-18{fill:#4271e5;}.cls-19{fill:#497eff;}.cls-19,.cls-22{mix-blend-mode:screen;}.cls-21{fill:#6d6d6d;}.cls-22{opacity:0.6;}.cls-23{fill:#969696;}.cls-24{fill:#424242;}.cls-25{fill:#a6a6a6;}.cls-26{fill:#5e5e5e;}.cls-27{fill:#8a8a8a;}.cls-28{fill:#9e9e9e;}.cls-29{fill:#af6a19;}.cls-30{fill:#c5ad92;}.cls-31{fill:#d3c2ab;}.cls-32{fill:#a69d96;}.cls-33{fill:#bbb3ab;}.cls-34{fill:#d3a15e;}.cls-35{fill:#c88e38;}.cls-36{fill:#c0741b;}.cls-37{fill:#d9bea1;}.cls-38{fill:#e8d5bc;}.cls-39{fill:#b7ada5;}.cls-40{fill:#cec5bc;}.cls-41{fill:#e8b167;}.cls-42{fill:#dc9c3e;}.cls-43{fill:#d3801e;}.cls-44{fill:#efd1b1;}.cls-45{fill:#ffeacf;}.cls-46{fill:#c9beb5;}.cls-47{fill:#e2d8cf;}.cls-48{fill:#ffc271;}.cls-49{fill:#f2ab44;}.cls-50{fill:#a8372f;}.cls-51{fill:#ff746b;}.cls-52{fill:#f24f44;}.cls-53{fill:#7d7d7d;}.cls-54{fill:#8f8f8f;}.cls-55{opacity:0.3;}.cls-56{fill:#383736;}.cls-57{fill:#141413;}.cls-58{fill:#282827;}.cls-59,.cls-97{fill:#231f20;}.cls-60{fill:#dadee0;}.cls-61{fill:#ffe8d9;}.cls-62{fill:#7a797a;}.cls-63{fill:#e8c5ac;}.cls-64{fill:#77541c;}.cls-65,.cls-84{fill:#fff;}.cls-66{fill:#cadee0;}.cls-67{fill:#f5f5f5;}.cls-68{fill:#38556d;}.cls-69{fill:#e4eff4;}.cls-70{clip-path:url(#clip-path-3);}.cls-71{fill:#467482;}.cls-72{clip-path:url(#clip-path-4);}.cls-73{clip-path:url(#clip-path-5);}.cls-74{fill:#4a778e;}.cls-75{clip-path:url(#clip-path-6);}.cls-76{fill:#b0ceea;}.cls-77{clip-path:url(#clip-path-7);}.cls-78{clip-path:url(#clip-path-8);}.cls-79{fill:#dfebf7;}.cls-80{clip-path:url(#clip-path-9);}.cls-81{opacity:0.71;}.cls-82{fill:#addae0;}.cls-83{fill:#ededed;}.cls-84{opacity:0.43;}.cls-85{clip-path:url(#clip-path-10);}.cls-86{clip-path:url(#clip-path-11);}.cls-87{fill:#534c42;}.cls-88{fill:#d63a3a;}.cls-89{fill:#eb4b48;}.cls-90{fill:#545454;}.cls-91{fill:#302f2f;}.cls-92{fill:#ffe1cc;}.cls-93{fill:#422002;}.cls-94{fill:#eff3f4;}.cls-95{fill:#efcfbd;}.cls-96{opacity:0.17;}.cls-97{opacity:0.27;}.cls-98{fill:#1c1c1b;}.cls-99{fill:#e8cab5;}.cls-100{fill:#14546d;}.cls-101{fill:#664119;}.cls-102{fill:#d6b19f;}.cls-103{fill:#d8bbab;}.cls-104{fill:#161615;}.cls-105{fill:#424241;}</style><clipPath id="clip-path"><path class="cls-1" d="M341.14,544.86c114-39.33,299.5-39.32,414.27,0-50.5-17.3-114.7-27-180.47-29.07C491.24,513.15,405,522.84,341.14,544.86Z"/></clipPath><clipPath id="clip-path-2"><path class="cls-1" d="M342.49,687.29C227.72,648,227.11,584.19,341.14,544.86c-74.68,25.76-100.19,62-76.66,95C276.87,657.23,302.88,673.71,342.49,687.29Z"/></clipPath><clipPath id="clip-path-3"><path class="cls-1" d="M171.29,506.45c13.45,12.8,28.61,23.23,44.26,29.7l-26.31,18.57c-22-9.11-43-26-59.66-46.32,1.21,1.18,2.32,2.23,4,3.74-.05.11-.07.22-.12.33l3.66-2.58c2.49,2.24,4.76,4.2,8.1,7l4.09-2.89c2,1.59,3.49,2.79,5.31,4.17C160.16,514.25,165.74,510.36,171.29,506.45Z"/></clipPath><clipPath id="clip-path-4"><path class="cls-1" d="M215.55,536.15c23.48,9.73,43.58,8.71,57.05-.79l-26.3,18.56c-13.48,9.5-33.58,10.52-57.06.8Z"/></clipPath><clipPath id="clip-path-5"><path class="cls-1" d="M133.44,512.47c.05-.11.07-.22.12-.33-1.66-1.51-2.77-2.56-4-3.74-18.71-22.82-31.94-50-34.87-75.27-2.76-23.77,4.09-41.43,17.4-50.81l26.31-18.56c-13.31,9.38-20.16,27-17.4,50.81,3.68,31.79,23.61,66.5,50.27,91.88-5.55,3.91-11.13,7.8-16.69,11.72-1.82-1.38-3.36-2.58-5.31-4.17l-4.09,2.89c-3.34-2.8-5.61-4.76-8.1-7Z"/></clipPath><clipPath id="clip-path-6"><path class="cls-1" d="M112.1,382.32l26.31-18.56c13.47-9.51,33.58-10.53,57.06-.8l-26.3,18.56C145.68,371.8,125.58,372.82,112.1,382.32Z"/></clipPath><clipPath id="clip-path-7"><path class="cls-1" d="M92.49,357.27l26.31-18.56c17.41-12.29,43.4-13.61,73.74-1l-26.31,18.57C135.89,343.66,109.91,345,92.49,357.27Z"/></clipPath><clipPath id="clip-path-8"><path class="cls-1" d="M272.61,535.35l-26.3,18.56c13.3-9.38,20.14-27,17.39-50.81-5.55-47.82-47.87-102.26-94.53-121.58L195.47,363c46.67,19.32,89,73.75,94.53,121.58C292.76,508.3,285.92,526,272.61,535.35Z"/></clipPath><clipPath id="clip-path-9"><path class="cls-1" d="M292.22,560.41,265.91,579c17.19-12.13,26-34.94,22.47-65.64-7.16-61.8-61.85-132.14-122.15-157.1l26.31-18.57c60.3,25,115,95.31,122.15,157.1C318.25,525.46,309.41,548.28,292.22,560.41Z"/></clipPath><clipPath id="clip-path-10"><path class="cls-2" d="M316.58,509.8,372,545.2c-2.39-1.52-7,.29-12.38,5.32l-55.45-35.4C309.55,510.08,314.2,508.27,316.58,509.8Z"/></clipPath><clipPath id="clip-path-11"><path class="cls-1" d="M347.18,580.29l-55.45-35.41c-1.09-.7-1.72-2.11-1.71-4.24,0-6.75,6.37-18.18,14.18-25.52l55.45,35.4c-7.81,7.35-14.16,18.78-14.18,25.53C345.46,578.18,346.08,579.59,347.18,580.29Z"/></clipPath></defs><title>homeImage</title><g class="cls-3"><g id="Layer_1" data-name="Layer 1"><g class="cls-4"><g class="cls-3"><g class="cls-3"><g class="cls-5"><g class="cls-3"><path class="cls-6" d="M341.14,544.86c55.27-19.06,127.32-28.88,200-29.47-72.65.59-144.7,10.41-200,29.47Z"/><path class="cls-7" d="M541.11,515.39q4.62,0,9.24,0-4.62,0-9.24,0Z"/><path class="cls-6" d="M550.35,515.37c74.19.2,148.28,10,205.06,29.49-56.78-19.45-130.87-29.29-205.06-29.49Z"/></g></g></g><g class="cls-3"><g class="cls-8"><g class="cls-3"><path class="cls-6" d="M342.49,687.29C227.72,648,227.11,584.19,341.14,544.86c-114,39.33-113.42,103.1,1.35,142.43Z"/></g></g></g><path class="cls-9" d="M755.41,544.86c114.77,39.33,115.38,103.1,1.36,142.43s-299.51,39.33-414.28,0-115.38-103.1-1.35-142.43S640.64,505.54,755.41,544.86Z"/></g></g><path class="cls-10" d="M282,537.56a27,27,0,0,1,.84-4.65,31.82,31.82,0,0,1,1.79-5.33,39,39,0,0,1,5.77-9.61c1.42-1.8,2.67-3.1,3.66-4.22.63-.66,1.41-1.41,2.19-2.14l.3-.28.06-.06.12-.12L298,510h0l6-5.3-.36.33s0,0,.05-.05l.35-.32.15-.12.09-.09.12-.1c2-1.74,4-3.3,6.12-4.77,1.05-.75,2.12-1.47,3.28-2.21,2.53-1.63,5.2-3.18,8.12-4.79.78-.41,1.56-.81,2.35-1.2l.1-.05c47.91-24,124-34.68,198.13-36.73,90.69-2.81,185.28,7.43,240.06,30.36l.88.38.66.27c1.55.67,3.07,1.34,4.55,2l.42.19.27.13a137.23,137.23,0,0,1,13,6.92c13,7.88,20.21,15.73,22.51,23.35.08.26.16.52.23.77l0,.08a17.86,17.86,0,0,1-.12,9.73c2.53-8.16-.58-16.61-10.25-25l6.07,5.28,0,0,.78.7,0,0,.22.2-.08-.07h0l.09.07h0l.09.08.06.06a63.31,63.31,0,0,1,4.79,4.9,41.77,41.77,0,0,1,5.56,7.72,34.23,34.23,0,0,1,4.78,14.84c0,.45,0,.91,0,1.36s.06,1,.08,1.54c0,12.95-13,24.88-35.31,35.13-26,12.15-64.63,21.62-109.56,27.78-71,9.89-158.73,11.61-240.84,1.13q-11.12-1.42-21.48-3.07c-81.59-13-128.41-36.07-128.46-60.13A26,26,0,0,1,282,537.56Z"/><path class="cls-11" d="M431.79,677.43c-92.71-11.84-147.42-36-149.85-61.46.34,5.31,1.16,9,4.75,15.87a48.12,48.12,0,0,0,12.69,14.76l5.06,4.41h0c.46.4.93.79,1.42,1.19a89.2,89.2,0,0,0,14,9.26q-3.07-1.73-5.9-3.52a121.1,121.1,0,0,0,11.65,6.27c-2.15-.92-4.08-1.84-5.75-2.75,85.05,47.72,310.09,51,422.88,14.93h.06a180.32,180.32,0,0,0,18.74-6.8,163.65,163.65,0,0,0,15.66-7.38c1.84-1,3.49-1.94,5-2.84-3.28,1.94-6.85,3.81-10.68,5.6,4.44-2.22,8.22-4.35,11.27-6.19a88.78,88.78,0,0,0,8.35-5.47c.4-.29.61-.46.61-.46a88.68,88.68,0,0,1-9.55,6.52,80.52,80.52,0,0,0,12.37-8.78l-.19.15.76-.65,6-5.3h0c9.51-8.68,14.95-16.74,16.1-28.7C810.48,666,608.73,700,431.79,677.43Z"/><path class="cls-12" d="M534.83,598.64a3.33,3.33,0,0,0,3.45-3.13l0-1a3.14,3.14,0,0,0-.94-2.34,3.54,3.54,0,0,0-2.42-1c-43.47-.58-90-4.2-132-11.83a4.47,4.47,0,0,0-4.77,2.27h0a3.46,3.46,0,0,0,0,3.22,3.75,3.75,0,0,0,2.7,1.93C443.64,594.45,490.85,598.06,534.83,598.64Z"/><path class="cls-13" d="M817.5,613.39l-.12-72.91c.1,51.43-205.65,87-385.71,64-94.8-12.11-149.89-37.11-149.94-63.2l.12,72.91c0,26.1,55.13,51.09,149.94,63.2,179.46,22.92,385.81-12.49,385.71-64Z"/><path class="cls-14" d="M708,597.5v72.92c65.3-12.76,109.5-33.16,109.46-57l-.12-72.91C817.43,564.3,773.31,584.72,708,597.5Z"/><path class="cls-14" d="M782.22,659.36c-3.28,1.94-6.85,3.81-10.68,5.6,4.44-2.22,8.22-4.35,11.27-6.19a88.78,88.78,0,0,0,8.35-5.47c.4-.29.61-.46.61-.46a88.68,88.68,0,0,1-9.55,6.52,80.52,80.52,0,0,0,12.37-8.78l-.19.15.76-.65,6-5.3h0c9.51-8.68,14.95-16.74,16.1-28.7-3.1,22.66-46.38,42-109.27,54.35L690.55,689a416.53,416.53,0,0,0,52.23-12.62h.06a180.32,180.32,0,0,0,18.74-6.8,163.65,163.65,0,0,0,15.66-7.38C779.08,661.2,780.73,660.26,782.22,659.36Z"/><path class="cls-15" d="M817.3,538.94c0-.45,0-.91,0-1.36a34.23,34.23,0,0,0-4.78-14.84,41.77,41.77,0,0,0-5.56-7.72,63.31,63.31,0,0,0-4.79-4.9l-.06-.06L802,510h0l-.09-.07h0l.08.07-.22-.2,0,0-.78-.7,0,0-6.07-5.28c9.67,8.42,12.78,16.87,10.25,25a17.86,17.86,0,0,0,.12-9.73l0-.08c-.07-.25-.15-.51-.23-.77-2.3-7.62-9.55-15.47-22.51-23.35a133,133,0,0,0-12.36-6.6L757.32,485l-30.17,36.77L692.8,570.69,708,597.5l.07,0c29.66-5.75,55.11-13.14,74-21.94,22.33-10.25,35.34-22.18,35.31-35.13C817.36,540,817.33,539.44,817.3,538.94Z"/><path class="cls-16" d="M293.08,634.42V562l18.23-29.09,3.3-30.69-10.31,2.26s0,0-.05.05l-.15.12-.35.32s0,0-.05.05l.36-.33-6,5.3h0l-1.31,1.19-.12.12-.06.06-.3.28c-.78.73-1.56,1.48-2.19,2.14-1,1.12-2.24,2.42-3.66,4.22a39,39,0,0,0-5.77,9.61,31.82,31.82,0,0,0-1.79,5.33,27,27,0,0,0-.84,4.65,26,26,0,0,0-.22,3.76l.12,72.91c0,.58,0,1.16.09,1.74h0c.34,5.31,1.16,9,4.75,15.87a48.12,48.12,0,0,0,12.69,14.76l5.06,4.41h0c.46.4.93.79,1.42,1.19.92.76,1.89,1.5,2.89,2.24Z"/><path class="cls-17" d="M330.73,491c-59.25,32-9.33,70.4,111.5,85.83s266.82,2,326.07-29.95,9.33-70.4-111.51-85.83S390,459,330.73,491Z"/><path class="cls-18" d="M316.48,508.06h0c-.85-.5-1.68-1-2.48-1.48.81.51,1.64,1,2.48,1.53h0a64.65,64.65,0,0,0,9.17,4.74C320.22,510.27,317,508.33,316.48,508.06Z"/><path class="cls-18" d="M793.24,500.36c-23.9,19.84-71.47,31.9-102.69,37.29h0c-128,23.16-318.62,12-381.8-34.57h0c-.51-.39-1.14-.82-3-2.3v17.76h0c-.5,23.88,49.7,46.81,136.43,57.89,165.52,21.14,355.1-12.22,350.94-59.71h.07Z"/><path class="cls-18" d="M771.54,513.6a102.42,102.42,0,0,0,20.23-12.12C786.31,505.66,777.77,510.47,771.54,513.6Z"/><path class="cls-19" d="M534.83,570.64a3.32,3.32,0,0,0,3.45-3.12l0-1a3.15,3.15,0,0,0-.94-2.34,3.49,3.49,0,0,0-2.42-1c-43.46-.58-90-4.2-132-11.83a4.47,4.47,0,0,0-4.78,2.26v0a3.44,3.44,0,0,0,0,3.21,3.83,3.83,0,0,0,2.71,1.94C443.65,566.45,490.86,570.07,534.83,570.64Z"/><path class="cls-20" d="M690.55,537.65h0C564.27,560.51,376.94,550,311.31,504.9h0L310,504l-1.29-.93h0c-.51-.39-1.14-.82-3-2.3v17.76h0c-.1,4.71,1.78,9.37,5.51,13.92V513q4,2.68,8.59,5.21c-2-1.15-4-2.32-5.9-3.53A121.08,121.08,0,0,0,325.65,521c-2.15-.92-4.08-1.84-5.75-2.75,73.36,41.16,250.86,49.23,370.65,27.55v24.87c62.52-11.84,104.6-31.27,102.62-53.92h.07V500.36C769.34,520.2,721.77,532.26,690.55,537.65Z"/><path class="cls-10" d="M282,386.19a27.39,27.39,0,0,1,.84-4.65,31.72,31.72,0,0,1,1.79-5.32,39,39,0,0,1,5.77-9.61c1.42-1.8,2.67-3.1,3.66-4.22.63-.66,1.41-1.41,2.19-2.14l.3-.28.06-.06.12-.12c.42-.4.86-.79,1.31-1.19h0v0h0l6-5.29-.36.33s0,0,.05-.05l.35-.32.15-.12.09-.09.12-.1c2-1.74,4-3.31,6.12-4.77,1.05-.75,2.12-1.47,3.28-2.22,2.53-1.62,5.2-3.17,8.12-4.79.78-.4,1.56-.8,2.35-1.19l.1,0c47.91-24,124-34.68,198.13-36.73,90.69-2.81,185.28,7.43,240.06,30.36l.88.37.66.28c1.55.67,3.07,1.34,4.55,2l.42.19.27.13a135,135,0,0,1,13,6.92c13,7.88,20.21,15.73,22.51,23.35.08.26.16.51.23.77a.31.31,0,0,0,0,.08,17.82,17.82,0,0,1-.12,9.72c2.53-8.15-.58-16.6-10.25-25l6.07,5.28s0,0,0,0l.78.69,0,0,.22.21-.08-.07h0l.09.07h0l.09.08.06.05a63.45,63.45,0,0,1,4.79,4.91,41.12,41.12,0,0,1,5.56,7.72,34.23,34.23,0,0,1,4.78,14.84c0,.45,0,.91,0,1.35s.06,1,.08,1.55c0,12.95-13,24.88-35.31,35.12C756,436.4,717.44,445.87,672.51,452c-71,9.89-158.73,11.61-240.84,1.12q-11.12-1.42-21.48-3.07C328.6,437.13,281.78,414,281.73,390A26.14,26.14,0,0,1,282,386.19Z"/><path class="cls-11" d="M431.79,526.06c-92.71-11.84-147.42-36-149.85-61.46.34,5.31,1.16,9,4.75,15.88a48.12,48.12,0,0,0,12.69,14.76l5.06,4.41h0c.46.39.93.79,1.42,1.19a89.9,89.9,0,0,0,14,9.26q-3.07-1.73-5.9-3.52a121.1,121.1,0,0,0,11.65,6.27c-2.15-.92-4.08-1.84-5.75-2.75C405,557.82,630,561.07,742.78,525l.06,0a178,178,0,0,0,18.74-6.8,166.13,166.13,0,0,0,15.66-7.37c1.84-1,3.49-1.94,5-2.84-3.28,1.94-6.85,3.8-10.68,5.6,4.44-2.22,8.22-4.35,11.27-6.19a88.78,88.78,0,0,0,8.35-5.47c.4-.29.61-.46.61-.46a88.68,88.68,0,0,1-9.55,6.52,81.92,81.92,0,0,0,12.37-8.78l-.19.15.76-.65,6-5.3h0c9.51-8.68,14.95-16.74,16.1-28.71C810.48,514.63,608.73,548.67,431.79,526.06Z"/><path class="cls-12" d="M534.83,447.28a3.33,3.33,0,0,0,3.45-3.13l0-1a3.15,3.15,0,0,0-.94-2.34,3.51,3.51,0,0,0-2.42-1c-43.47-.58-90-4.2-132-11.83a4.49,4.49,0,0,0-4.78,2.26v0a3.44,3.44,0,0,0,0,3.21,3.79,3.79,0,0,0,2.7,1.94C443.64,443.09,490.85,446.7,534.83,447.28Z"/><path class="cls-13" d="M817.5,462l-.12-72.91c.1,51.43-205.65,87-385.71,64C336.87,441,281.78,416.05,281.73,390l.12,72.91C281.9,489,337,514,431.79,526.06,611.25,549,817.6,513.58,817.5,462Z"/><path class="cls-14" d="M708,446.14v72.92c65.3-12.76,109.5-33.16,109.46-57l-.12-72.91C817.43,412.94,773.31,433.36,708,446.14Z"/><path class="cls-14" d="M782.22,508c-3.28,1.94-6.85,3.8-10.68,5.6,4.44-2.22,8.22-4.35,11.27-6.19a88.78,88.78,0,0,0,8.35-5.47c.4-.29.61-.46.61-.46a88.68,88.68,0,0,1-9.55,6.52,81.92,81.92,0,0,0,12.37-8.78l-.19.15.76-.65,6-5.3h0c9.51-8.68,14.95-16.74,16.1-28.71-3.1,22.67-46.38,42.06-109.27,54.36l-17.49,18.58A420.05,420.05,0,0,0,742.78,525l.06,0a178,178,0,0,0,18.74-6.8,166.13,166.13,0,0,0,15.66-7.37C779.08,509.84,780.73,508.9,782.22,508Z"/><path class="cls-15" d="M817.3,387.57c0-.44,0-.9,0-1.35a34.23,34.23,0,0,0-4.78-14.84,41.12,41.12,0,0,0-5.56-7.72,63.45,63.45,0,0,0-4.79-4.91l-.06-.05-.09-.08h0l-.09-.07h0l.08.07-.22-.21,0,0-.78-.69s0,0,0,0l-6.07-5.28c9.67,8.42,12.78,16.87,10.25,25a17.82,17.82,0,0,0,.12-9.72.31.31,0,0,1,0-.08c-.07-.26-.15-.51-.23-.77-2.3-7.62-9.55-15.47-22.51-23.35a133,133,0,0,0-12.36-6.6l-12.74-3.22-30.17,36.77L692.8,419.33,708,446.14l.07.05c29.66-5.75,55.11-13.15,74-21.95,22.33-10.24,35.34-22.17,35.31-35.12C817.36,388.58,817.33,388.08,817.3,387.57Z"/><path class="cls-16" d="M293.08,483.06V410.59l18.23-29.09,3.3-30.69-10.31,2.25-.05.06-.15.12-.35.32s0,0-.05.05l.36-.33-6,5.29h0v0h0c-.45.4-.89.79-1.31,1.19l-.12.12-.06.06-.3.28c-.78.73-1.56,1.48-2.19,2.14-1,1.12-2.24,2.42-3.66,4.22a39,39,0,0,0-5.77,9.61,31.72,31.72,0,0,0-1.79,5.32,27.39,27.39,0,0,0-.84,4.65,26.14,26.14,0,0,0-.22,3.77l.12,72.91c0,.58,0,1.16.09,1.73h0c.34,5.31,1.16,9,4.75,15.88a48.12,48.12,0,0,0,12.69,14.76l5.06,4.41h0c.46.39.93.79,1.42,1.19.92.75,1.89,1.5,2.89,2.24Z"/><path class="cls-17" d="M330.73,339.61c-59.25,32-9.33,70.4,111.5,85.84s266.82,2,326.07-29.95,9.33-70.4-111.51-85.83S390,307.64,330.73,339.61Z"/><path class="cls-10" d="M282,234.83a27.39,27.39,0,0,1,.84-4.65,31.72,31.72,0,0,1,1.79-5.32,39,39,0,0,1,5.77-9.61c1.42-1.8,2.67-3.1,3.66-4.22.63-.67,1.41-1.42,2.19-2.14l.3-.29.06-.06.12-.11c.42-.4.86-.79,1.31-1.19l0,0h0l6-5.29-.36.32.05,0,.35-.32.15-.13.09-.08.12-.1c2-1.75,4-3.31,6.12-4.78,1.05-.74,2.12-1.46,3.28-2.21,2.53-1.62,5.2-3.17,8.12-4.79l2.35-1.2.1-.05c47.91-24,124-34.68,198.13-36.72,90.69-2.81,185.28,7.43,240.06,30.36l.88.37.66.28c1.55.66,3.07,1.34,4.55,2l.42.2.27.13a137.23,137.23,0,0,1,13,6.91c13,7.88,20.21,15.73,22.51,23.36.08.25.16.51.23.76a.19.19,0,0,0,0,.08,17.86,17.86,0,0,1-.12,9.73c2.53-8.15-.58-16.6-10.25-25l6.07,5.29,0,0,.78.7,0,0,.22.21a.27.27,0,0,0-.08-.07h0l.09.07h0l.09.08.06,0a61.71,61.71,0,0,1,4.79,4.91,41.12,41.12,0,0,1,5.56,7.72,34.19,34.19,0,0,1,4.78,14.84c0,.45,0,.9,0,1.35s.06,1,.08,1.55c0,13-13,24.88-35.31,35.12-26,12.15-64.63,21.63-109.56,27.78-71,9.89-158.73,11.62-240.84,1.13q-11.12-1.43-21.48-3.07c-81.59-13-128.41-36.07-128.46-60.12A26.07,26.07,0,0,1,282,234.83Z"/><path class="cls-11" d="M431.79,374.7c-92.71-11.84-147.42-36-149.85-61.46.34,5.31,1.16,9,4.75,15.88a48.12,48.12,0,0,0,12.69,14.76l5.06,4.4h0c.46.4.93.8,1.42,1.19a89.92,89.92,0,0,0,14,9.27q-3.07-1.73-5.9-3.53a121.1,121.1,0,0,0,11.65,6.27c-2.15-.91-4.08-1.83-5.75-2.74,85.05,47.72,310.09,51,422.88,14.92h.06a178,178,0,0,0,18.74-6.8,163.65,163.65,0,0,0,15.66-7.38c1.84-1,3.49-1.94,5-2.83-3.28,1.94-6.85,3.8-10.68,5.6,4.44-2.22,8.22-4.36,11.27-6.19a88.81,88.81,0,0,0,8.35-5.48l.61-.45a88.68,88.68,0,0,1-9.55,6.52,81.92,81.92,0,0,0,12.37-8.78,1.39,1.39,0,0,0-.19.15l.76-.65,6-5.3h0c9.51-8.68,14.95-16.74,16.1-28.71C810.48,363.27,608.73,397.3,431.79,374.7Z"/><path class="cls-12" d="M534.83,295.91a3.32,3.32,0,0,0,3.45-3.12l0-1a3.15,3.15,0,0,0-.94-2.34,3.51,3.51,0,0,0-2.42-1c-43.46-.58-90-4.2-132-11.83a4.46,4.46,0,0,0-4.78,2.26h0a3.46,3.46,0,0,0,0,3.22,3.79,3.79,0,0,0,2.7,1.94C443.64,291.72,490.85,295.34,534.83,295.91Z"/><path class="cls-13" d="M817.5,310.67l-.12-72.91c.1,51.42-205.65,87-385.71,64-94.8-12.11-149.89-37.1-149.94-63.19l.12,72.91c0,26.09,55.13,51.08,149.94,63.19,179.46,22.92,385.81-12.48,385.71-64Z"/><path class="cls-14" d="M708,294.78V367.7c65.3-12.76,109.5-33.17,109.46-57l-.12-72.91C817.43,261.58,773.31,282,708,294.78Z"/><path class="cls-14" d="M782.22,356.64c-3.28,1.94-6.85,3.8-10.68,5.6,4.44-2.22,8.22-4.36,11.27-6.19a88.81,88.81,0,0,0,8.35-5.48l.61-.45a88.68,88.68,0,0,1-9.55,6.52,81.92,81.92,0,0,0,12.37-8.78,1.39,1.39,0,0,0-.19.15l.76-.65,6-5.3h0c9.51-8.68,14.95-16.74,16.1-28.71-3.1,22.67-46.38,42-109.27,54.36l-17.49,18.57a416.53,416.53,0,0,0,52.23-12.62h.06a178,178,0,0,0,18.74-6.8,163.65,163.65,0,0,0,15.66-7.38C779.08,358.48,780.73,357.53,782.22,356.64Z"/><path class="cls-15" d="M817.3,236.21c0-.45,0-.9,0-1.35A34.19,34.19,0,0,0,812.47,220a41.12,41.12,0,0,0-5.56-7.72,61.71,61.71,0,0,0-4.79-4.91l-.06,0-.09-.08h0l-.09-.07h0a.27.27,0,0,1,.08.07l-.22-.21,0,0-.78-.7,0,0L794.81,201c9.67,8.43,12.78,16.88,10.25,25a17.86,17.86,0,0,0,.12-9.73.19.19,0,0,1,0-.08c-.07-.25-.15-.51-.23-.76-2.3-7.63-9.55-15.48-22.51-23.36a135.43,135.43,0,0,0-12.36-6.59l-12.74-3.23L727.15,219,692.8,268,708,294.78l.07.05c29.66-5.75,55.11-13.15,74-21.95,22.33-10.24,35.34-22.17,35.31-35.12C817.36,237.22,817.33,236.71,817.3,236.21Z"/><path class="cls-16" d="M293.08,331.7V259.23l18.23-29.1,3.3-30.68L304.3,201.7l-.05.05-.15.13-.35.32-.05,0,.36-.32-6,5.29h0l0,0c-.45.4-.89.79-1.31,1.19l-.12.11-.06.06-.3.29c-.78.72-1.56,1.47-2.19,2.14-1,1.12-2.24,2.42-3.66,4.22a39,39,0,0,0-5.77,9.61,31.72,31.72,0,0,0-1.79,5.32,27.39,27.39,0,0,0-.84,4.65,26.07,26.07,0,0,0-.22,3.77l.12,72.91c0,.58,0,1.16.09,1.73h0c.34,5.31,1.16,9,4.75,15.88a48.12,48.12,0,0,0,12.69,14.76l5.06,4.4h0c.46.4.93.8,1.42,1.19.92.76,1.89,1.51,2.89,2.24Z"/><path class="cls-17" d="M330.73,188.25c-59.25,32-9.33,70.4,111.5,85.84s266.82,2,326.07-29.95,9.33-70.4-111.51-85.83S390,156.28,330.73,188.25Z"/><path class="cls-18" d="M316.48,356.69h0c-.85-.49-1.68-1-2.48-1.48.81.52,1.64,1,2.48,1.54h0a63.6,63.6,0,0,0,9.17,4.73C320.22,358.91,317,357,316.48,356.69Z"/><path class="cls-18" d="M793.24,349c-23.9,19.83-71.47,31.9-102.69,37.28h0c-128,23.17-318.62,12.05-381.8-34.57h0c-.51-.38-1.14-.81-3-2.3v17.77h0c-.5,23.88,49.7,46.81,136.43,57.89,165.52,21.14,355.1-12.23,350.94-59.72h.07Z"/><path class="cls-18" d="M771.54,362.24a102.42,102.42,0,0,0,20.23-12.12C786.31,354.3,777.77,359.11,771.54,362.24Z"/><path class="cls-19" d="M534.83,419.28a3.32,3.32,0,0,0,3.45-3.12l0-1a3.15,3.15,0,0,0-.94-2.34,3.54,3.54,0,0,0-2.42-1c-43.47-.57-90-4.19-132-11.82a4.46,4.46,0,0,0-4.78,2.26h0a3.46,3.46,0,0,0,0,3.22,3.79,3.79,0,0,0,2.7,1.94C443.64,415.09,490.85,418.71,534.83,419.28Z"/><path class="cls-20" d="M690.55,386.28h0c-126.28,22.87-313.61,12.33-379.24-32.74h0l-1.27-.89c-.44-.31-.87-.62-1.29-.94h0c-.51-.38-1.14-.81-3-2.3v17.77h0c-.1,4.7,1.78,9.37,5.51,13.92V361.64a100.17,100.17,0,0,0,8.59,5.22q-3.07-1.73-5.9-3.53a118.94,118.94,0,0,0,11.65,6.27c-2.15-.92-4.08-1.83-5.75-2.74,73.36,41.16,250.86,49.23,370.65,27.55v24.87c62.52-11.84,104.6-31.28,102.62-53.93h.07V349C769.34,368.83,721.77,380.9,690.55,386.28Z"/><path class="cls-10" d="M282,83.47a27,27,0,0,1,.84-4.65,31.42,31.42,0,0,1,1.79-5.32,39.11,39.11,0,0,1,5.77-9.62c1.42-1.8,2.67-3.1,3.66-4.22.63-.66,1.41-1.41,2.19-2.14l.3-.28.06-.06.12-.11c.42-.4.86-.8,1.31-1.19l0,0h0l6-5.3-.36.33.05,0,.35-.33.15-.12.09-.08.12-.11c2-1.74,4-3.3,6.12-4.77,1.05-.75,2.12-1.47,3.28-2.21,2.53-1.63,5.2-3.18,8.12-4.79l2.35-1.2.1,0c47.91-24,124-34.68,198.13-36.73,90.69-2.8,185.28,7.44,240.06,30.37l.88.37.66.28q2.33,1,4.55,2l.42.2.27.13a137.23,137.23,0,0,1,13,6.91c13,7.88,20.21,15.73,22.51,23.36.08.25.16.51.23.76a.24.24,0,0,0,0,.08,17.86,17.86,0,0,1-.12,9.73c2.53-8.15-.58-16.6-10.25-25l6.07,5.29,0,0,.78.7,0,0a2.09,2.09,0,0,0,.22.2l-.08-.06h0l.09.08,0,0,.09.08.06.06a63.31,63.31,0,0,1,4.79,4.9,41.52,41.52,0,0,1,5.56,7.73,34.15,34.15,0,0,1,4.78,14.83c0,.46,0,.91,0,1.36s.06,1,.08,1.54c0,13-13,24.88-35.31,35.13-26,12.15-64.63,21.62-109.56,27.78-71,9.89-158.73,11.61-240.84,1.13q-11.12-1.43-21.48-3.07c-81.59-13-128.41-36.07-128.46-60.13A26,26,0,0,1,282,83.47Z"/><path class="cls-11" d="M431.79,223.34c-92.71-11.84-147.42-36-149.85-61.46.34,5.31,1.16,9,4.75,15.87a47.89,47.89,0,0,0,12.69,14.76l5.06,4.41h0c.46.4.93.8,1.42,1.19a89.2,89.2,0,0,0,14,9.26q-3.07-1.73-5.9-3.52a121.1,121.1,0,0,0,11.65,6.27c-2.15-.92-4.08-1.84-5.75-2.75C405,255.1,630,258.34,742.78,222.3h.06a180.32,180.32,0,0,0,18.74-6.8,163.65,163.65,0,0,0,15.66-7.38c1.84-1,3.49-1.94,5-2.83-3.28,1.94-6.85,3.8-10.68,5.6,4.44-2.23,8.22-4.36,11.27-6.19a88.81,88.81,0,0,0,8.35-5.48l.61-.45a90.17,90.17,0,0,1-9.55,6.52,81.24,81.24,0,0,0,12.37-8.79l-.19.15.76-.65,6-5.29h0c9.51-8.67,14.95-16.74,16.1-28.7C810.48,211.91,608.73,245.94,431.79,223.34Z"/><path class="cls-12" d="M534.83,144.55a3.33,3.33,0,0,0,3.45-3.13l0-1a3.17,3.17,0,0,0-.94-2.35,3.53,3.53,0,0,0-2.42-1c-43.46-.58-90-4.2-132-11.83a4.48,4.48,0,0,0-4.78,2.27h0a3.49,3.49,0,0,0,0,3.22,3.82,3.82,0,0,0,2.71,1.93C443.64,140.36,490.85,144,534.83,144.55Z"/><path class="cls-13" d="M817.5,159.31l-.12-72.92c.1,51.43-205.65,87-385.71,64-94.8-12.11-149.89-37.1-149.94-63.2l.12,72.92c0,26.09,55.13,51.08,149.94,63.19,179.46,22.92,385.81-12.49,385.71-64Z"/><path class="cls-14" d="M708,143.42v72.91c65.3-12.76,109.5-33.16,109.46-57l-.12-72.92C817.43,110.21,773.31,130.64,708,143.42Z"/><path class="cls-14" d="M782.22,205.28c-3.28,1.94-6.85,3.8-10.68,5.6,4.44-2.23,8.22-4.36,11.27-6.19a88.81,88.81,0,0,0,8.35-5.48l.61-.45a90.17,90.17,0,0,1-9.55,6.52,81.24,81.24,0,0,0,12.37-8.79l-.19.15.76-.65,6-5.29h0c9.51-8.67,14.95-16.74,16.1-28.7-3.1,22.66-46.38,42-109.27,54.35l-17.49,18.58a416.53,416.53,0,0,0,52.23-12.62h.06a180.32,180.32,0,0,0,18.74-6.8,163.65,163.65,0,0,0,15.66-7.38C779.08,207.11,780.73,206.17,782.22,205.28Z"/><path class="cls-15" d="M817.3,84.85c0-.45,0-.9,0-1.36a34.15,34.15,0,0,0-4.78-14.83,41.52,41.52,0,0,0-5.56-7.73,63.31,63.31,0,0,0-4.79-4.9l-.06-.06-.09-.08,0,0-.09-.08h0l.08.06a2.09,2.09,0,0,1-.22-.2l0,0-.78-.7,0,0-6.07-5.29c9.67,8.43,12.78,16.88,10.25,25a17.86,17.86,0,0,0,.12-9.73.24.24,0,0,1,0-.08c-.07-.25-.15-.51-.23-.76-2.3-7.63-9.55-15.48-22.51-23.36a135.43,135.43,0,0,0-12.36-6.6l-12.74-3.22L727.15,67.68,692.8,116.61,708,143.42l.07,0c29.66-5.75,55.11-13.14,74-21.94,22.33-10.25,35.34-22.18,35.31-35.13C817.36,85.86,817.33,85.35,817.3,84.85Z"/><path class="cls-16" d="M293.08,180.33V107.87l18.23-29.1,3.3-30.68L304.3,50.34l-.05,0-.15.12-.35.33-.05,0,.36-.33-6,5.3h0l0,0c-.45.39-.89.79-1.31,1.19l-.12.11-.06.06-.3.28c-.78.73-1.56,1.48-2.19,2.14-1,1.12-2.24,2.42-3.66,4.22a39.11,39.11,0,0,0-5.77,9.62,31.42,31.42,0,0,0-1.79,5.32,27,27,0,0,0-.84,4.65,26,26,0,0,0-.22,3.76l.12,72.92c0,.57,0,1.15.09,1.73h0c.34,5.31,1.16,9,4.75,15.87a47.89,47.89,0,0,0,12.69,14.76l5.06,4.41h0c.46.4.93.8,1.42,1.19.92.76,1.89,1.5,2.89,2.24Z"/><ellipse class="cls-17" cx="549.51" cy="64.83" rx="243.67" ry="64.28" transform="translate(-0.11 0.96) rotate(-0.1)"/><path class="cls-18" d="M316.48,205.33h0c-.85-.49-1.68-1-2.48-1.48.81.52,1.64,1,2.48,1.53h0a63.62,63.62,0,0,0,9.17,4.74C320.22,207.54,317,205.6,316.48,205.33Z"/><path class="cls-18" d="M793.24,197.64c-23.9,19.83-71.47,31.89-102.69,37.28h0c-128,23.17-318.62,12.05-381.8-34.57h0c-.51-.38-1.14-.81-3-2.3v17.76h0c-.5,23.89,49.7,46.82,136.43,57.9,165.52,21.13,355.1-12.23,350.94-59.72h.07Z"/><path class="cls-18" d="M771.54,210.88a102.9,102.9,0,0,0,20.23-12.12C786.31,202.94,777.77,207.75,771.54,210.88Z"/><path class="cls-19" d="M534.83,267.92a3.33,3.33,0,0,0,3.45-3.13l0-1a3.17,3.17,0,0,0-.94-2.35,3.49,3.49,0,0,0-2.42-1c-43.47-.58-90-4.2-132-11.83a4.47,4.47,0,0,0-4.78,2.26v0a3.49,3.49,0,0,0,0,3.22,3.82,3.82,0,0,0,2.71,1.93C443.64,263.73,490.85,267.34,534.83,267.92Z"/><path class="cls-20" d="M690.55,234.92h0c-126.28,22.86-313.61,12.33-379.24-32.75h0c-.43-.29-.85-.59-1.27-.89l-1.29-.93h0c-.51-.38-1.14-.81-3-2.3v17.76h0c-.1,4.71,1.78,9.38,5.51,13.93V210.28a100.15,100.15,0,0,0,8.59,5.21q-3.07-1.73-5.9-3.52a121.1,121.1,0,0,0,11.65,6.27c-2.15-.92-4.08-1.84-5.75-2.75,73.36,41.17,250.86,49.24,370.65,27.55v24.88c62.52-11.85,104.6-31.28,102.62-53.93h.07V197.64C769.34,217.47,721.77,229.53,690.55,234.92Z"/><path class="cls-21" d="M281.73,108.39v55.55q10.89,12.8,36,23.62C378,213.49,477.41,221.76,550,221.76c7.16,0,14.05-.08,20.63-.23a11.22,11.22,0,0,0,11.2-11V176.29c0-5.73-4.93-10.32-10.93-10.32h-.27c-7.26.17-14.59.25-21.95.25-113,0-234.44-19.68-267-57.83Z"/><path class="cls-13" d="M570.73,169c-69.26,1.6-221.9-6-279.67-48a93,93,0,0,1-9.29-7.51l0,46.52c1.28,1.45,5.56,5.46,6.93,6.71,7.09,6.45,17.28,12.54,30.39,18.19,66,28.38,179.4,35.35,251.52,33.69a8.18,8.18,0,0,0,8.12-8V176.29A7.57,7.57,0,0,0,570.73,169Z"/><path class="cls-14" d="M570.73,169c-3.87.09-8,.15-12.37.18a7.44,7.44,0,0,1,6.1,7.14v34.27a8.18,8.18,0,0,1-8.11,8c-4.31.1-8.77.17-13.35.2,9.68.08,18.93,0,27.57-.2a8.18,8.18,0,0,0,8.12-8V176.29A7.57,7.57,0,0,0,570.73,169Z"/><path class="cls-22" d="M564.18,174.35a7.59,7.59,0,0,0-5.82-5.2h.1c-73.64.47-212.83-8.54-267.4-48.23a93,93,0,0,1-9.29-7.51v5.26a93,93,0,0,0,9.29,7.51C347.08,166.92,492.27,175.33,564.18,174.35Z"/><path class="cls-14" d="M390.52,193.91,379,186.33l-31.62-6.18-65.5-19.05.06.78c.34,5.31,1.16,9,4.75,15.87a47.89,47.89,0,0,0,12.69,14.76l5.06,4.41h0c.46.4.93.8,1.42,1.19a89.2,89.2,0,0,0,14,9.26q-3.07-1.73-5.9-3.52a121.1,121.1,0,0,0,11.65,6.27c-2.15-.92-4.08-1.84-5.75-2.75,21.25,11.93,51.23,21.07,86,27.52Z"/><path class="cls-23" d="M300.4,139.94l-11.14,6.49a3,3,0,0,0-.35.22c-.43.3-.62.62-.58.91l3,21.51c0-.28.16-.6.59-.91a3.59,3.59,0,0,1,.35-.21l11.13-6.49Z"/><path class="cls-23" d="M387.53,172.39l-26.75,6.22c-8.78,2-18.74,2.06-24.2,0l-64.72-24.1c-2.44-.91-3.75-2.14-3.95-3.51l3,21.52c.19,1.37,1.5,2.6,3.95,3.51l64.71,24.1c5.47,2,15.42,2,24.2,0l26.75-6.21Z"/><path class="cls-10" d="M376.87,168.42l10.66,4-26.75,6.22c-8.78,2-18.74,2.06-24.2,0l-64.72-24.1c-5.46-2-5.27-5.68.47-8.86L289.79,136l10.61,3.95-11.14,6.49c-1.21.67-1.25,1.44-.1,1.87l64.72,24.1a10.15,10.15,0,0,0,5.1,0Z"/><path class="cls-21" d="M281.73,259.78v55.55q10.89,12.8,36,23.62C378,364.88,477.41,373.15,550,373.15c7.16,0,14.05-.08,20.63-.24a11.21,11.21,0,0,0,11.2-11V327.68c0-5.73-4.93-10.32-10.93-10.32h-.27c-7.26.17-14.59.25-21.95.25-113,0-234.44-19.68-267-57.83Z"/><path class="cls-13" d="M570.73,320.36c-69.26,1.6-221.9-6-279.67-48.05a93,93,0,0,1-9.29-7.51l0,46.52c1.28,1.45,5.56,5.47,6.93,6.71,7.09,6.45,17.28,12.55,30.39,18.19,66,28.38,179.4,35.35,251.52,33.69a8.18,8.18,0,0,0,8.12-8V327.68A7.58,7.58,0,0,0,570.73,320.36Z"/><path class="cls-14" d="M570.73,320.36c-3.87.09-8,.15-12.37.18a7.44,7.44,0,0,1,6.1,7.14V362a8.18,8.18,0,0,1-8.11,8c-4.31.1-8.77.17-13.35.2,9.68.08,18.93,0,27.57-.2a8.18,8.18,0,0,0,8.12-8V327.68A7.58,7.58,0,0,0,570.73,320.36Z"/><path class="cls-22" d="M564.18,325.74a7.59,7.59,0,0,0-5.82-5.2h.1c-73.64.47-212.83-8.54-267.4-48.23a93,93,0,0,1-9.29-7.51v5.26a93,93,0,0,0,9.29,7.51C347.08,318.31,492.27,326.72,564.18,325.74Z"/><path class="cls-14" d="M390.52,345.3,379,337.72l-31.62-6.18-65.5-19.05.06.78c.34,5.31,1.16,9,4.75,15.87a47.89,47.89,0,0,0,12.69,14.76l5.06,4.41h0c.46.4.93.8,1.42,1.19a89.2,89.2,0,0,0,14,9.26c-2-1.14-4-2.32-5.9-3.52a121.1,121.1,0,0,0,11.65,6.27c-2.15-.92-4.08-1.83-5.75-2.75,21.25,11.93,51.23,21.07,86,27.52Z"/><path class="cls-23" d="M300.4,291.33l-11.14,6.49a3,3,0,0,0-.35.22c-.43.3-.62.62-.58.91l3,21.52c0-.29.16-.61.59-.91a2.33,2.33,0,0,1,.35-.22l11.13-6.49Z"/><path class="cls-23" d="M387.53,323.78,360.78,330c-8.78,2.05-18.74,2.06-24.2,0l-64.72-24.1c-2.44-.91-3.75-2.14-3.95-3.51l3,21.52c.19,1.37,1.5,2.6,3.95,3.51l64.71,24.1c5.47,2,15.42,2,24.2,0l26.75-6.21Z"/><path class="cls-10" d="M376.87,319.81l10.66,4L360.78,330c-8.78,2.05-18.74,2.06-24.2,0l-64.72-24.1c-5.46-2-5.27-5.68.47-8.86l17.46-9.68,10.61,3.95-11.14,6.49c-1.21.67-1.25,1.44-.1,1.87l64.72,24.1a10,10,0,0,0,5.1,0Z"/><path class="cls-21" d="M281.73,411.17v55.55q10.89,12.79,36,23.62C378,516.27,477.41,524.54,550,524.54c7.16,0,14.05-.08,20.63-.23a11.22,11.22,0,0,0,11.2-11V479.07c0-5.73-4.93-10.32-10.93-10.32h-.27c-7.26.17-14.59.25-21.95.25-113,0-234.44-19.68-267-57.83Z"/><path class="cls-24" d="M570.73,471.75c-69.26,1.6-221.9-6-279.67-48.05a93,93,0,0,1-9.29-7.51l0,46.52c1.28,1.45,5.56,5.47,6.93,6.71,7.09,6.45,17.28,12.54,30.39,18.19C385,516,498.45,523,570.57,521.3a8.18,8.18,0,0,0,8.12-8V479.07A7.57,7.57,0,0,0,570.73,471.75Z"/><path class="cls-25" d="M620.91,608.91l-20.47-27.55-17.51-32.8-1.52-15.95-5.28-13.55L281.85,461v1.83c0,.32,0,.63,0,.95s0,.52.06.78h0c.34,5.31,1.16,9,4.75,15.87a48.12,48.12,0,0,0,12.69,14.76l5.06,4.41h0c.43.37.89.75,1.35,1.13v2.4c-.45.36-.89.73-1.33,1.11l-.12.1-.09.09-.15.12-.35.32s0,0-.05.05l.36-.33-6,5.3h0l-1.31,1.19-.12.12-.06.06-.3.28c-.78.73-1.56,1.48-2.19,2.14-1,1.12-2.24,2.42-3.66,4.22a39,39,0,0,0-5.77,9.61,31.82,31.82,0,0,0-1.79,5.33,27,27,0,0,0-.84,4.65,26,26,0,0,0-.22,3.76l.12,72.91c0,.32,0,.64,0,.95l.06.79c.34,5.31,1.16,9,4.75,15.87a48.12,48.12,0,0,0,12.69,14.76l5.06,4.41h0c.46.4.93.79,1.42,1.19s.93.76,1.42,1.13l1.35,1,.12.09h0a96.49,96.49,0,0,0,11.16,7q-3.07-1.73-5.9-3.52a121.1,121.1,0,0,0,11.65,6.27c-2.15-.92-4.08-1.84-5.75-2.75,64.52,36.2,209.59,46.81,325.11,34.09l11.86-17.22ZM293.22,561.73h0l.23.2ZM306.05,501c.39.31.78.63,1.17.93Z"/><path class="cls-26" d="M315.5,465.74l208.15,29.48-36,17.63-139.51,6.07-173.9-18.56,11.8-39.21s76.73-6.62,78.31-6.53S315.5,465.74,315.5,465.74Z"/><path class="cls-27" d="M282.3,416.72,138.63,434.21v49.55l176.87-18V437.31a131.85,131.85,0,0,1-24.44-13.61A108.06,108.06,0,0,1,282.3,416.72Z"/><path class="cls-28" d="M282.3,416.72,138.63,434.21v4.38l148-18.25C285,419.07,283.36,417.74,282.3,416.72Z"/><polygon class="cls-20" points="166.56 435.15 143.06 438.05 138.63 483.76 194.92 477.15 166.56 435.15"/><path class="cls-29" d="M394.83,414.51l-99.38-41,6.37,49.66c.84,6.59-3.06,15.16-8.67,19.13-2.83,2-5.56,2.47-7.68,1.59l99.38,41c2.13.88,4.86.42,7.69-1.59,5.61-4,9.5-12.54,8.67-19.12Z"/><polygon class="cls-30" points="306.17 379.37 304.38 380.68 383.12 413.01 391.49 482.39 393.28 481.08 384.91 411.7 306.17 379.37"/><polygon class="cls-31" points="383.12 413.01 391.49 482.39 312.76 450.05 304.38 380.68 383.12 413.01"/><polygon class="cls-32" points="290.77 378.21 289.19 379.52 367.93 411.86 376.31 481.23 377.89 479.92 369.51 410.55 290.77 378.21"/><polygon class="cls-33" points="367.93 411.86 376.31 481.23 297.57 448.89 289.19 379.52 367.93 411.86"/><polygon class="cls-30" points="296.84 386.75 295.05 388.07 373.79 420.4 382.01 488.52 383.8 487.21 375.58 419.09 296.84 386.75"/><polygon class="cls-31" points="373.79 420.4 382.01 488.52 303.27 456.19 295.05 388.07 373.79 420.4"/><path class="cls-34" d="M398.32,412a1.27,1.27,0,0,0-.7-1.09h0l-99.38-41a1.4,1.4,0,0,0-1.31.27,3.86,3.86,0,0,0-1.48,3.3l99.38,41,6.38,49.67c.83,6.58-3.06,15.15-8.67,19.12s-10.86,1.88-11.69-4.71l-6.3-49a1.26,1.26,0,0,0-.69-1.09h0l-99.38-41a1.38,1.38,0,0,0-1.31.27,3.85,3.85,0,0,0-1.49,3.3l99.38,41,6.29,49c1.12,8.82,8.17,11.66,15.72,6.32s12.75-16.86,11.63-25.69Zm-1.09-1.13a.81.81,0,0,0-.22,0A.81.81,0,0,1,397.23,410.91Z"/><path class="cls-35" d="M377.34,481.08l-6.29-49-99.38-41,6.29,49c.55,4.39,2.57,7.3,5.39,8.46l99.39,41C379.92,488.37,377.9,485.46,377.34,481.08Z"/><path class="cls-34" d="M389.93,405.27c-.05-.15-.1-.29-.16-.44a11.86,11.86,0,0,0-.93-1.85h0l-.07-.09a13.23,13.23,0,0,0-1-1.44c-.12-.15-.25-.28-.37-.42-.33-.36-.67-.7-1-1-.08-.07-.15-.17-.24-.24l-.15-.11c-.3-.25-.6-.46-.91-.68-.15-.09-.28-.2-.43-.29a10,10,0,0,0-1.41-.74l-14.8-6.05c-1.79-.73-3.32-.65-4.35.08l-3.46,2.47c1-.73,2.55-.81,4.34-.08l14.8,6a10.49,10.49,0,0,1,1.41.73c.15.09.29.21.43.31a9.67,9.67,0,0,1,.91.67c.14.11.27.24.4.35.35.33.69.67,1,1l.37.42a14.16,14.16,0,0,1,1.05,1.43.76.76,0,0,0,.08.11,13.16,13.16,0,0,1,.92,1.84l.17.45a9.62,9.62,0,0,1,.48,1.88l.23,1.94,3.47-2.48-.24-1.93A8.39,8.39,0,0,0,389.93,405.27Z"/><path class="cls-29" d="M379.71,400.4c3.56,1.46,6.8,5.58,7.24,9.22l.23,1.94L359.5,400.24l-.23-1.94c-.45-3.64,2.08-5.41,5.64-3.95Z"/><path class="cls-36" d="M325.25,418.71l-99.38-41,6.37,49.67c.84,6.59-3.06,15.16-8.67,19.13-2.83,2-5.56,2.46-7.68,1.59l99.38,41c2.13.87,4.86.41,7.69-1.59,5.61-4,9.5-12.54,8.67-19.13Z"/><polygon class="cls-37" points="236.59 383.57 234.8 384.88 313.54 417.22 321.92 486.6 323.7 485.28 315.33 415.91 236.59 383.57"/><polygon class="cls-38" points="313.54 417.22 321.92 486.6 243.18 454.26 234.8 384.88 313.54 417.22"/><polygon class="cls-39" points="221.19 382.42 219.61 383.73 298.35 416.06 306.73 485.44 308.31 484.13 299.93 414.76 221.19 382.42"/><polygon class="cls-40" points="298.35 416.06 306.73 485.44 227.99 453.1 219.61 383.73 298.35 416.06"/><polygon class="cls-37" points="227.26 390.96 225.47 392.27 304.21 424.61 312.43 492.73 314.22 491.42 306 423.3 227.26 390.96"/><polygon class="cls-38" points="304.21 424.61 312.43 492.73 233.69 460.39 225.47 392.27 304.21 424.61"/><path class="cls-41" d="M328.74,416.24a1.26,1.26,0,0,0-.7-1.09h0l-99.38-41a1.37,1.37,0,0,0-1.31.27,3.84,3.84,0,0,0-1.48,3.29l99.38,41,6.38,49.67c.83,6.59-3.06,15.16-8.67,19.13s-10.86,1.87-11.69-4.71l-6.3-49a1.26,1.26,0,0,0-.69-1.09h0l-99.37-41a1.39,1.39,0,0,0-1.31.26,3.85,3.85,0,0,0-1.5,3.31l99.38,41,6.29,49c1.12,8.83,8.18,11.67,15.72,6.33s12.75-16.87,11.63-25.7Zm-1.09-1.12a1.64,1.64,0,0,0-.22,0A1.64,1.64,0,0,1,327.65,415.12Z"/><path class="cls-42" d="M307.76,485.28l-6.29-49-99.38-41,6.29,49c.55,4.38,2.58,7.29,5.39,8.45l99.39,41C310.34,492.57,308.32,489.67,307.76,485.28Z"/><path class="cls-41" d="M320.35,409.48c-.05-.15-.1-.3-.16-.45a12.22,12.22,0,0,0-.93-1.84v0l-.07-.09a13.11,13.11,0,0,0-1.05-1.43c-.12-.15-.25-.29-.37-.42a14.19,14.19,0,0,0-1-1l-.25-.25-.15-.11c-.3-.24-.6-.46-.91-.67-.15-.1-.28-.21-.43-.3a8.59,8.59,0,0,0-1.41-.73l-14.8-6.05c-1.79-.74-3.32-.65-4.34.07L291,398.63c1-.72,2.55-.81,4.34-.07l14.8,6.05a8.59,8.59,0,0,1,1.41.73c.15.09.29.2.43.3.31.21.62.43.91.67.14.11.27.24.4.36a14,14,0,0,1,1,1c.12.14.25.28.37.43a12.21,12.21,0,0,1,1.05,1.43l.08.11a13.16,13.16,0,0,1,.92,1.84c.06.15.12.3.17.45a9.45,9.45,0,0,1,.48,1.88l.23,1.93,3.47-2.47-.24-1.93A8.25,8.25,0,0,0,320.35,409.48Z"/><path class="cls-36" d="M310.13,404.61c3.56,1.45,6.8,5.58,7.24,9.22l.23,1.93-27.68-11.32-.23-1.93c-.44-3.64,2.08-5.41,5.64-3.95Z"/><path class="cls-43" d="M261.61,418.71l-99.38-41,6.38,49.67c.83,6.59-3.06,15.16-8.67,19.13-2.83,2-5.56,2.46-7.68,1.59l99.38,41c2.12.87,4.85.41,7.68-1.59,5.61-4,9.51-12.54,8.67-19.13Z"/><polygon class="cls-44" points="172.95 383.57 171.16 384.88 249.9 417.22 258.28 486.6 260.07 485.28 251.69 415.91 172.95 383.57"/><polygon class="cls-45" points="249.9 417.22 258.28 486.6 179.54 454.26 171.16 384.88 249.9 417.22"/><polygon class="cls-46" points="157.56 382.42 155.97 383.73 234.71 416.06 243.09 485.44 244.67 484.13 236.29 414.76 157.56 382.42"/><polygon class="cls-47" points="234.71 416.06 243.09 485.44 164.35 453.1 155.97 383.73 234.71 416.06"/><polygon class="cls-44" points="163.63 390.96 161.84 392.27 240.57 424.61 248.8 492.73 250.59 491.42 242.36 423.3 163.63 390.96"/><polygon class="cls-45" points="240.57 424.61 248.8 492.73 170.06 460.39 161.84 392.27 240.57 424.61"/><path class="cls-48" d="M265.1,416.24a1.26,1.26,0,0,0-.69-1.09h0l-99.38-41a1.38,1.38,0,0,0-1.31.27,3.84,3.84,0,0,0-1.48,3.29l99.38,41L268,468.38c.84,6.59-3.06,15.16-8.67,19.13s-10.86,1.87-11.69-4.71l-6.29-49a1.24,1.24,0,0,0-.7-1.09h0l-99.38-41A1.4,1.4,0,0,0,140,392a3.9,3.9,0,0,0-1.5,3.31l99.39,41,6.29,49c1.12,8.83,8.17,11.67,15.71,6.33s12.76-16.87,11.64-25.7ZM264,415.12a1.49,1.49,0,0,0-.21,0A1.49,1.49,0,0,1,264,415.12Z"/><path class="cls-49" d="M244.13,485.28l-6.29-49-99.39-41,6.29,49c.56,4.38,2.58,7.29,5.4,8.45l99.38,41C246.7,492.57,244.68,489.67,244.13,485.28Z"/><path class="cls-48" d="M256.72,409.48c-.05-.15-.11-.3-.17-.45a12.15,12.15,0,0,0-.92-1.84v0l-.06-.09a13.21,13.21,0,0,0-1.06-1.43,5,5,0,0,0-.37-.42,12.41,12.41,0,0,0-1-1l-.25-.25-.15-.11c-.29-.24-.6-.46-.91-.67-.14-.1-.28-.21-.43-.3a8.59,8.59,0,0,0-1.41-.73l-14.79-6.05c-1.8-.74-3.33-.65-4.35.07l-3.47,2.47a4.5,4.5,0,0,1,4.35-.07l14.79,6.05a9.1,9.1,0,0,1,1.42.73l.43.3c.31.21.61.43.91.67l.39.36a12.27,12.27,0,0,1,1,1c.13.14.26.28.38.43a15,15,0,0,1,1.05,1.43l.07.11a12.15,12.15,0,0,1,.92,1.84c.06.15.12.3.17.45a8.25,8.25,0,0,1,.48,1.88l.23,1.93,3.47-2.47-.23-1.93A9.45,9.45,0,0,0,256.72,409.48Z"/><path class="cls-43" d="M246.49,404.61a12.72,12.72,0,0,1,7.24,9.22l.23,1.93-27.68-11.32-.23-1.93c-.44-3.64,2.08-5.41,5.65-3.95Z"/><path class="cls-50" d="M498.41,403.8l-98,43.88,43.5,28.23c5.76,3.75,10,12.19,9.4,18.81-.28,3.35-1.72,5.6-3.81,6.53l98-43.88c2.09-.94,3.53-3.19,3.81-6.53.56-6.63-3.65-15.06-9.4-18.81Z"/><polygon class="cls-44" points="412.1 443.87 411.96 446.02 489.5 411.17 549.9 450.98 550.05 448.84 489.64 409.03 412.1 443.87"/><polygon class="cls-45" points="489.5 411.17 549.9 450.98 472.36 485.82 411.96 446.02 489.5 411.17"/><polygon class="cls-46" points="401.02 454.1 401.02 456.09 478.56 421.25 538.96 461.05 538.97 459.06 478.57 419.25 401.02 454.1"/><polygon class="cls-47" points="478.56 421.25 538.96 461.05 461.42 495.9 401.02 456.09 478.56 421.25"/><polygon class="cls-44" points="411.79 455.4 411.64 457.55 489.19 422.7 548.5 461.79 548.64 459.65 489.33 420.56 411.79 455.4"/><polygon class="cls-45" points="489.19 422.7 548.5 461.79 470.95 496.64 411.64 457.55 489.19 422.7"/><path class="cls-51" d="M498.76,399.68a1.41,1.41,0,0,0-1.33-.22h0l-98,43.88a1.25,1.25,0,0,0-.65,1.11,3.87,3.87,0,0,0,1.63,3.23l98-43.88L541.91,432c5.75,3.75,10,12.18,9.4,18.81s-5.68,9-11.44,5.23L497,428.23a1.4,1.4,0,0,0-1.32-.23h0l-98,43.88A1.26,1.26,0,0,0,397,473a3.9,3.9,0,0,0,1.63,3.25l98-43.88,42.9,27.84c7.72,5,14.63,1.86,15.38-7s-4.92-20.23-12.64-25.26Zm-1.61,0c0,.06-.12.08-.16.15S497.1,399.77,497.15,399.71Z"/><path class="cls-52" d="M539.52,460.21l-42.9-27.84-98,43.88,42.9,27.84c3.84,2.5,7.47,3,10.25,1.74l98-43.89C547,463.18,543.36,462.71,539.52,460.21Z"/><path class="cls-51" d="M487.87,401.19l-.46-.17a13.68,13.68,0,0,0-2.07-.56h-.13a13.84,13.84,0,0,0-1.83-.2h-.58a14.54,14.54,0,0,0-1.48.05H481l-.19,0c-.39.05-.76.12-1.13.2-.17,0-.35.06-.52.11a9.93,9.93,0,0,0-1.51.52l-14.55,6.57c-1.77.8-2.71,1.94-2.81,3.15l-.34,4.1c.1-1.21,1-2.35,2.81-3.15l14.55-6.56a11.17,11.17,0,0,1,1.51-.53l.53-.11c.37-.08.74-.15,1.13-.2l.54-.05a14.74,14.74,0,0,1,1.49-.05h.58c.61,0,1.22.1,1.82.2l.14,0a14.81,14.81,0,0,1,2.06.55l.47.18a10.43,10.43,0,0,1,1.8.9l1.69,1.11.33-4.11-1.68-1.1A9.88,9.88,0,0,0,487.87,401.19Z"/><path class="cls-50" d="M477.27,405.28a13.94,13.94,0,0,1,12.07.92l1.69,1.11L463.8,419.59l-1.68-1.11c-3.17-2.09-2.9-5.06.6-6.64Z"/><path class="cls-43" d="M399.07,446.3l-99.38-41L306.07,455c.83,6.59-3.06,15.16-8.67,19.13-2.83,2-5.57,2.46-7.69,1.59l99.39,41c2.12.88,4.85.41,7.68-1.59,5.61-4,9.5-12.54,8.67-19.13Z"/><polygon class="cls-44" points="310.41 411.16 308.62 412.47 387.36 444.8 395.74 514.18 397.53 512.87 389.15 443.49 310.41 411.16"/><polygon class="cls-45" points="387.36 444.8 395.74 514.18 317 481.84 308.62 412.47 387.36 444.8"/><polygon class="cls-46" points="295.01 410 293.43 411.31 372.17 443.64 380.55 513.02 382.13 511.71 373.75 442.34 295.01 410"/><polygon class="cls-47" points="372.17 443.64 380.55 513.02 301.81 480.68 293.43 411.31 372.17 443.64"/><polygon class="cls-44" points="301.08 418.54 299.29 419.85 378.03 452.19 386.25 520.31 388.04 519 379.82 450.88 301.08 418.54"/><polygon class="cls-45" points="378.03 452.19 386.25 520.31 307.52 487.98 299.29 419.85 378.03 452.19"/><path class="cls-48" d="M402.56,443.82a1.28,1.28,0,0,0-.7-1.09h0l-99.38-41a1.38,1.38,0,0,0-1.31.27,3.84,3.84,0,0,0-1.48,3.29l99.38,41L405.45,496c.83,6.59-3.06,15.16-8.67,19.13s-10.86,1.87-11.69-4.71l-6.29-49a1.24,1.24,0,0,0-.7-1.09h0l-99.38-41a1.37,1.37,0,0,0-1.31.27,3.86,3.86,0,0,0-1.5,3.3l99.38,41,6.3,49c1.11,8.83,8.17,11.67,15.71,6.33s12.76-16.87,11.64-25.7Zm-1.09-1.12a1.64,1.64,0,0,0-.22,0A1.64,1.64,0,0,1,401.47,442.7Z"/><path class="cls-49" d="M381.59,512.86l-6.3-49-99.38-41,6.29,49c.56,4.38,2.58,7.29,5.39,8.46l99.39,41C384.16,520.16,382.14,517.25,381.59,512.86Z"/><path class="cls-48" d="M394.18,437.06c-.06-.15-.11-.3-.17-.44a11.8,11.8,0,0,0-.92-1.85s0,0,0,0a.71.71,0,0,1-.07-.09,14.16,14.16,0,0,0-1.05-1.43c-.12-.15-.24-.28-.37-.42a14.19,14.19,0,0,0-1-1c-.09-.07-.16-.17-.25-.25l-.15-.1a9.78,9.78,0,0,0-.91-.68c-.14-.1-.28-.21-.43-.3a10.49,10.49,0,0,0-1.41-.73l-14.8-6.05c-1.79-.73-3.32-.65-4.34.07l-3.47,2.47c1-.72,2.55-.81,4.35-.07L384,432.19a10.06,10.06,0,0,1,1.42.73l.43.3c.3.22.61.43.9.67l.4.36a12.39,12.39,0,0,1,1,1,5.14,5.14,0,0,1,.38.42,15.76,15.76,0,0,1,1,1.43.76.76,0,0,1,.08.11,12.15,12.15,0,0,1,.92,1.84c.06.15.12.3.17.45a8.81,8.81,0,0,1,.48,1.88l.23,1.93,3.47-2.47-.23-1.93A9.45,9.45,0,0,0,394.18,437.06Z"/><path class="cls-43" d="M384,432.19c3.57,1.46,6.8,5.58,7.24,9.22l.23,1.93L363.74,432l-.23-1.94c-.44-3.64,2.08-5.41,5.65-3.95Z"/><path class="cls-53" d="M578.69,513.34V479.07a7.33,7.33,0,0,0-4.78-6.75L427.58,489.77v49.55l143-18A8.18,8.18,0,0,0,578.69,513.34Z"/><path class="cls-53" d="M578.69,513.34V479.07a7.33,7.33,0,0,0-4.78-6.75L427.58,489.77v49.55l143-18A8.18,8.18,0,0,0,578.69,513.34Z"/><path class="cls-54" d="M573.91,472.32,427.58,489.77v3.89l150.28-17.87A7.57,7.57,0,0,0,573.91,472.32Z"/><polygon class="cls-20" points="443.62 487.86 427.58 489.77 427.58 539.32 469.85 533.99 450.4 490.95 443.62 487.86"/><path class="cls-13" d="M427.58,489.77c-69.26,1.6-221.89-6-279.67-48a92.84,92.84,0,0,1-9.28-7.51l0,46.51c1.28,1.46,5.56,5.47,6.93,6.72,7.09,6.45,17.28,12.54,30.39,18.18,66,28.38,179.4,35.36,251.53,33.7a8.19,8.19,0,0,0,8.12-8V497.09A7.58,7.58,0,0,0,427.58,489.77Z"/><path class="cls-22" d="M421,495.15a7.63,7.63,0,0,0-5.83-5.21h.1c-73.63.48-212.83-8.53-267.4-48.22a92.84,92.84,0,0,1-9.28-7.51v5.25c1.87,2,7.09,5.91,9.28,7.51C203.93,487.72,349.13,496.13,421,495.15Z"/><path class="cls-23" d="M157.25,460.74l-11.13,6.48-.35.22c-.43.31-.63.63-.59.91l3,21.52c0-.28.16-.6.59-.91l.35-.22,11.14-6.48Z"/><path class="cls-23" d="M244.38,493.19l-26.75,6.21c-8.78,2.06-18.73,2.07-24.2,0l-64.71-24.1c-2.45-.91-3.76-2.14-4-3.51l3,21.51c.19,1.38,1.5,2.61,4,3.52L196.43,521c5.46,2,15.42,2,24.2,0l26.74-6.22Z"/><path class="cls-10" d="M233.72,489.22l10.66,4-26.75,6.21c-8.78,2.06-18.73,2.07-24.2,0l-64.71-24.1c-5.47-2-5.28-5.68.47-8.87l17.46-9.67,10.6,3.95-11.13,6.48c-1.22.68-1.26,1.45-.11,1.88l64.72,24.1a10.19,10.19,0,0,0,5.11,0Z"/><path class="cls-21" d="M281.73,562.56v55.56q10.89,12.78,36,23.61C378,667.66,477.41,675.93,550,675.93c7.16,0,14.05-.08,20.63-.23a11.22,11.22,0,0,0,11.2-11V630.46c0-5.73-4.93-10.32-10.93-10.32h-.27c-7.26.17-14.59.25-21.95.25-113,0-234.44-19.68-267-57.83Z"/><path class="cls-13" d="M570.73,623.14c-69.26,1.6-221.9-6-279.67-48a93,93,0,0,1-9.29-7.51l0,46.52c1.28,1.45,5.56,5.47,6.93,6.71,7.09,6.45,17.28,12.55,30.39,18.19,66,28.38,179.4,35.35,251.52,33.69a8.18,8.18,0,0,0,8.12-8V630.46A7.58,7.58,0,0,0,570.73,623.14Z"/><path class="cls-14" d="M570.73,623.14c-3.87.09-8,.15-12.37.18a7.44,7.44,0,0,1,6.1,7.14v34.27a8.18,8.18,0,0,1-8.11,8c-4.31.1-8.77.17-13.35.21,9.68.07,18.93,0,27.57-.21a8.18,8.18,0,0,0,8.12-8V630.46A7.58,7.58,0,0,0,570.73,623.14Z"/><path class="cls-22" d="M564.18,628.52a7.61,7.61,0,0,0-5.82-5.2h.1c-73.64.47-212.83-8.54-267.4-48.23a93,93,0,0,1-9.29-7.51v5.26a93,93,0,0,0,9.29,7.51C347.08,621.09,492.27,629.5,564.18,628.52Z"/><path class="cls-14" d="M390.52,648.08,379,640.5l-31.62-6.18-65.5-19.05.06.78c.34,5.31,1.16,9,4.75,15.87a47.89,47.89,0,0,0,12.69,14.76l5.06,4.41h0c.46.4.93.8,1.42,1.19a89.92,89.92,0,0,0,14,9.27q-3.07-1.72-5.9-3.53a121.1,121.1,0,0,0,11.65,6.27c-2.15-.92-4.08-1.83-5.75-2.74,21.25,11.92,51.23,21.07,86,27.52Z"/><path class="cls-23" d="M300.4,594.11l-11.14,6.49a3,3,0,0,0-.35.22c-.43.3-.62.62-.58.91l3,21.52c0-.29.16-.61.59-.91a2.33,2.33,0,0,1,.35-.22l11.13-6.49Z"/><path class="cls-23" d="M387.53,626.56l-26.75,6.22c-8.78,2.05-18.74,2.06-24.2,0l-64.72-24.1c-2.44-.91-3.75-2.14-3.95-3.51l3,21.52c.19,1.37,1.5,2.6,3.95,3.51l64.71,24.1c5.47,2,15.42,2,24.2,0l26.75-6.21Z"/><path class="cls-10" d="M376.87,622.59l10.66,4-26.75,6.22c-8.78,2.05-18.74,2.06-24.2,0l-64.72-24.1c-5.46-2-5.27-5.68.47-8.86l17.46-9.68,10.61,4-11.14,6.49c-1.21.67-1.25,1.44-.1,1.87l64.72,24.1a10,10,0,0,0,5.1,0Z"/><path class="cls-55" d="M52.85,698.29c-7.93.66-7.24,3.44-25.36,13.77C14.31,719.56-1,725.82.05,716s20.71-35.4,40.38-40.81c27.39-7.53,63.85,11,59.7,16.39S73.45,696.58,52.85,698.29Z"/><path class="cls-55" d="M619.09,789.83s47,11,33,21.29c-34.72,25.46-90.54,15.45-89.66,2.92s33.84-10.43,44-15.44S609.86,790.67,619.09,789.83Z"/><path class="cls-56" d="M88.61,424.9a10.71,10.71,0,0,1,3.92,1.92s2,1.58,1.77,3.31c-1,8.95-7.47,32.6-13.66,47-3.77,8.72-16.54,34.09-16.54,34.09s-5.27,11.14-15.07,5.7c-7.19-4-8.28-22.16-2.88-27.71,2.15-2.2,13.55-13.59,18.54-24.61,4.37-9.68,13.63-37.74,13.63-37.74S81,422.76,88.61,424.9Z"/><path class="cls-57" d="M83.93,578.5s-5.37-4.57-16-4.57-12.58-.4-12.58-.4L59.61,533s21.35,27.13,23,33.58A39.89,39.89,0,0,1,83.93,578.5Z"/><path class="cls-58" d="M26.88,696s1.36,2.95-.49,7.4c0,0-2.23,1.65-2.58,2-2.09,2-9,12.4-15.24,12.67-6.79.29-7.21-4.75-6.46-7.87.37-1.59,8.26-18.62,8.26-18.62Z"/><path class="cls-59" d="M74.08,673.37l1.84,2.5s20.11,9,21.28,9.39a2.89,2.89,0,0,1,2,2.51,2,2,0,0,1-.39,1.35c-1.25,1.7-3.84,2.34-6.19,2.88-6.43,1.48-25.31-2.44-25.9-2.88,0,0-1.93-.39-2.4.51a7.06,7.06,0,0,0-.1,1.61l-6.8-2.14c-.35-.16-1-3.25-1.22-4.62L55,675.35Z"/><path class="cls-58" d="M98.86,688.38c-1.62,1.94-4.06,2.66-6.43,3.12-7.76,1.49-25.9-2.69-25.9-2.69-1.55-.19-2.2.32-2.3,1.2v1.23c.06,0,2.17-1.36,2.14-1.36s17,4.14,24.67,3.33c2.41-.25,6.47-1.62,7.89-3.73a2.26,2.26,0,0,0,.23-1.91A5,5,0,0,1,98.86,688.38Z"/><path class="cls-57" d="M73.24,568.47,75.58,674c.13,3.51-1.53,4.62-1.85,4.92-3.46,3.15-17.23,7.71-19.25,3.22L43.35,570.58Z"/><path class="cls-56" d="M59.47,572.18,28.74,695.86c-.29,2.08-1.39,2.7-3.33,3.16-11.22,2.7-15.78-1-15.78-1-2.13-1-2-2.66-2.1-3.63L25.25,571.65Z"/><path class="cls-60" d="M25.52,501.43s4-8.52,8.2-10.54,18.46-2.63,18.46-2.63,9.19,14.9,9.37,16,15.6,18.81,11.78,67.7c-.73,9.27-35.7,8.11-35.7,8.11Z"/><path class="cls-61" d="M32.68,462.62a4.32,4.32,0,0,1,5,2.87l1.29,7.44a2.22,2.22,0,0,1-1.33,2.16c-2.14.78-3.42-.91-4.77-2.78-.08-.11-1.86-2.9-2-3.07C29.34,466.88,29,463.2,32.68,462.62Z"/><path class="cls-58" d="M11.39,586.16l3.91-37.72L9,516.29l21.9-23.87h0c-.28.28-.8.82-1.76,1.78-.14,0,3.35,3.87,7.78,10.61,1.94,2.95,7.57,25.67,10.57,36.12l3.84,41.26c.93,8.14-4.71,9.35-6.71,10-2.4.8-11.45-.41-11.45-.41C20.16,589.92,11.16,585.43,11.39,586.16Z"/><path class="cls-58" d="M60,505c-5.93-10.46-9.61-17.15-12-19.22,2-.72,9.11-3.28,9.19-3.36.25-.23,13.59,13.36,17.5,29,4.94,19.75,11.41,60.08,11.41,60.08.37,2.14.6,4.7-1.5,6.87,0,0-5.93,4.54-8.48,5.62C76.15,584,76.15,533.51,60,505Z"/><path class="cls-62" d="M49.67,488.66l-2.08-3.09,2.12.8c2.19.8,6.23,4.43,6.23,4.43l6.36,5.5c.84,1.51,2.69,2.42,1.84,5.38l-1.42,5.64,4.39,2.95c1.9,1,3.67,3.09,4,7.52l.28,19.75s-6.7-22.87-9.47-28.61A113.38,113.38,0,0,0,49.67,488.66Z"/><path class="cls-62" d="M29,489.5,26.81,493a11.93,11.93,0,0,0-.75,1.45,13.83,13.83,0,0,0,.24,4.25L30,509.56c1,2.09,2,2.69,3.73,2.54l6.17.61L36.29,516c-1.2,1.11-2.15,1.87.36,5.76l10.84,19.13s-3-20.95-8.15-32.1C35,499.53,29,489.5,29,489.5Z"/><path class="cls-63" d="M46.18,499.93c-6.08,7.39-11.21-3.12-16.41-7.65l-.7-21.09,18.38,3.09.43,10.88Z"/><path class="cls-63" d="M20,451.27h0L10,462.21l20.53,17.44c1.55,1,3.52,2.5,6,2.51,1.79,0,2.83-.27,5.69-1.09,0,0,10.07-4,12.28-9.27.91-2.18-.65-4.54-1.48-6.15a52.85,52.85,0,0,0-5.73-7.58l-8.52-9.75-7.44-7.11Z"/><path class="cls-64" d="M21.13,438.31c1.16-.39,5.14,0,6.18.1,4.24.45,5.9,3.28,9.22,7.14,1.22,1.42,2.76,3.5,2.87,3.49s-2.66-2.36-4.18-3.84c-3.75-3.64-6.39-.88-6.84.68,0,.07-5,9.31-4.95,9.39.05.23-2.3-4.76-2.5-4.11-.84,2.83-1,4.06,0,6.9,1,3.06,5.14,8.05,7,9.46l1.81,1.5c.93.79,1.68,1.33,1.48,1.53a3.93,3.93,0,0,1-3.8.35s-3.37-1.13-5.27,1.63c-1.62,2.36,5,5.1,5.36,5.19l1.3,1.43c.84,1.05,2.46,4.43.77,3.82-2.86-1-9.16-3.24-11-3.8-19.85-6.12-21.37-27-4.43-36.79.1-.06,1.1-1.15-.81-.95a40.56,40.56,0,0,1,9.13-2C24.2,439.32,21.13,438.31,21.13,438.31Z"/><path class="cls-63" d="M21.6,471.7a4.49,4.49,0,0,1,5.75-.75l5.46,3s1.38,1.75.63,3c-1.14,1.89-1.49,2-3.85,2.2a18.75,18.75,0,0,1-4.52-.55C22.32,477.68,19.13,474.37,21.6,471.7Z"/><path class="cls-65" d="M46.34,496.57c-.66,1,.07,1.81.71,2.44l4.05,3.89c1.27,1.15,1.5-.4,1.3-1.79l-1.74-10c-1.69-6.18-2.84-5.36-2.84-5.36s0,1.26-.13,3C47.59,490.88,47.29,495.1,46.34,496.57Z"/><path class="cls-65" d="M29.63,485.72a8.24,8.24,0,0,0,1,2.93C34.62,494.1,45,497,45,497c1.17.22,1.21.75,1.33,2.55v6.65c.11,1.73-.86,1.7-1.69,1.1,0,0-8.19-4.82-10.55-6.5-5.54-3.95-5.49-7.27-5.33-13.48C28.83,485.59,29.63,485.72,29.63,485.72Z"/><path class="cls-66" d="M79,428.47s-.63-1.84.33-2.42,3.18-1.62,8.46-.5a12.93,12.93,0,0,1,4,1.78c.66.43,2,1.71,1.72,2.6-.24.65-.81,1.27-2.64,1.87-3.87,1.26-8.75-.1-9.6-.87S79,428.47,79,428.47Z"/><polygon class="cls-63" points="88.56 433.79 89.13 425.81 79.4 425.78 79.17 430.12 88.56 433.79"/><path class="cls-67" d="M78.76,427.3s.41,2.87,6.46,4c3.22.6,4.65.42,6.33-.12a4.38,4.38,0,0,0,2-1.29l-.45,2.5s-1.57,2-6.25,1.68c-6.93-.42-8.2-4.64-8.2-4.64Z"/><path class="cls-63" d="M84.62,424.12c.83-2.55-1.82-5.37-4-6.14-.75-.28.08-6.92-3.08-7.8,0,0-.53,1.66-1.37,4.62a7.06,7.06,0,0,0-.38,4.86c2.23,6,2.37,7,4.51,7.79S83.79,426.67,84.62,424.12Z"/><path class="cls-63" d="M80,420.47s-.3-4.1,4.41-9.58S92,397.21,96.32,405.7,94,427.26,83.45,429.09C78.19,430,80,420.47,80,420.47Z"/><path class="cls-61" d="M524.66,677.25c-1.89,1.39-5.12-.11-6.46-1.74-.47-.57-4.29,1.71-6.3,1.85a1.91,1.91,0,0,1-2.16-2.36c.17-.41,6.59-2.74,8.17-3.38,5.31-2.15,6.84-.59,8.19,1S526.55,675.84,524.66,677.25Z"/><path class="cls-68" d="M528.14,673.93c1.58,1.78,8.24,2.29,8.24,2.29l1.44-.83c5.18-3,23.58-12.37,29.44-16.87,6.42-4.93,20.86-20.87,20.86-20.87s13-12.52,4.47-21.21c-5.17-5.25-10.84,4.31-15.91,8.36-4,3.2-22.3,21.55-22.3,21.55l-25.73,19S525,670.45,528.14,673.93Z"/><path class="cls-61" d="M529.52,677l-3.82-4.76-7.33,2.57-1,.72-7.1,6.41a4.5,4.5,0,0,0-.63,6.61c2,2.49.21.28.21.28,2.73,3.39,6.79.88,6.79.88l10.64-6.48C529.47,681.69,531.27,679.13,529.52,677Z"/><path class="cls-69" d="M522.37,668.85c-.84.66-.92,3.74.94,6.27a14.18,14.18,0,0,0,4.29,4.21c1.77,1,3,1.29,4.18.57,0,0,4.23-2.67,5.53-3.57.83-.58.51-.94.51-.94a4.07,4.07,0,0,1-1,.49c-1.23.2-3.49-.21-6.24-3.11-4.35-4.56-1.92-7.45-1.92-7.45-.61-.68-1.13-.65-1.93,0Z"/><g class="cls-3"><g class="cls-3"><g class="cls-70"><path class="cls-71" d="M115.15,488.17l26.3-18.56a184.46,184.46,0,0,0,36.15,42.56l-26.31,18.56a184.67,184.67,0,0,1-36.14-42.56Z"/><path class="cls-71" d="M151.29,530.73l26.31-18.56c11.8,10.18,24.7,18.5,38,24l-26.31,18.57c-13.25-5.49-26.14-13.81-38-24Z"/></g></g><g class="cls-3"><g class="cls-72"><path class="cls-71" d="M189.24,554.72l26.31-18.57c23.48,9.73,43.59,8.71,57.06-.8l-26.3,18.56c-13.48,9.51-33.59,10.53-57.07.81Z"/></g></g><g class="cls-3"><g class="cls-73"><g class="cls-3"><path class="cls-71" d="M112.1,382.32l26.31-18.56c-13.31,9.39-20.15,27.05-17.39,50.81,2.1,18.16,9.5,37.26,20.43,55l-26.3,18.56c-10.93-17.77-18.34-36.88-20.44-55C92,409.37,98.8,391.71,112.1,382.32Z"/><path class="cls-74" d="M115.15,488.17l26.3-18.56a184.46,184.46,0,0,0,36.15,42.56l-26.31,18.56a184.67,184.67,0,0,1-36.14-42.56Z"/></g></g></g><g class="cls-3"><g class="cls-75"><g class="cls-3"><path class="cls-76" d="M112.1,382.32l26.31-18.56c13.47-9.51,33.58-10.53,57.06-.8l-26.3,18.56c-23.49-9.72-43.59-8.7-57.07.8Z"/></g></g></g><g class="cls-3"><g class="cls-77"><path class="cls-71" d="M92.49,357.27l26.31-18.56c17.41-12.29,43.4-13.61,73.74-1l-26.31,18.57c-30.34-12.57-56.32-11.25-73.74,1Z"/></g></g><g class="cls-3"><g class="cls-78"><g class="cls-3"><path class="cls-76" d="M169.17,381.52,195.47,363c13.25,5.48,26.15,13.8,37.95,24l-26.3,18.56c-11.81-10.19-24.71-18.5-38-24Z"/><path class="cls-79" d="M207.12,405.51,233.42,387a184.41,184.41,0,0,1,36.15,42.55l-26.31,18.56a184.62,184.62,0,0,0-36.14-42.55Z"/><path class="cls-76" d="M243.26,448.06l26.31-18.56c10.93,17.78,18.33,36.89,20.43,55,2.76,23.76-4.08,41.42-17.39,50.81l-26.3,18.56c13.3-9.38,20.14-27,17.39-50.81-2.11-18.15-9.51-37.26-20.44-55Z"/></g></g></g><g class="cls-3"><g class="cls-80"><path class="cls-71" d="M166.23,356.23l26.31-18.57c17.12,7.09,33.78,17.84,49,31l-26.31,18.56c-15.25-13.16-31.92-23.9-49-31Z"/><path class="cls-71" d="M215.27,387.22l26.31-18.56a238.41,238.41,0,0,1,46.7,55L262,442.21a238.91,238.91,0,0,0-46.71-55Z"/><path class="cls-71" d="M262,442.21l26.3-18.56c14.13,23,23.69,47.66,26.41,71.11,3.56,30.7-5.28,53.52-22.47,65.65L265.91,579c17.19-12.13,26-34.94,22.47-65.64-2.72-23.46-12.28-48.15-26.4-71.12Z"/></g></g><g class="cls-81"><path class="cls-82" d="M179,367.86c46.67,19.32,89,73.75,94.53,121.58s-27.79,70.94-74.45,51.61-89-73.75-94.54-121.58S132.37,348.53,179,367.86Z"/></g><path class="cls-83" d="M166.23,356.23c60.3,25,115,95.3,122.15,157.1S252.47,605,192.17,580,77.18,484.71,70,422.91,105.94,331.26,166.23,356.23Zm23,198.49c46.67,19.32,80-3.79,74.46-51.62s-47.87-102.26-94.53-121.58-80,3.78-74.46,51.61,47.86,102.26,94.53,121.59Z"/></g><path class="cls-84" d="M202.63,523.82c-40.68-16.84-77.56-64.29-82.39-106a63.53,63.53,0,0,1,1.06-22.51c-10.36,8.48-15.56,23.29-13.29,42.86,4.83,41.69,41.71,89.13,82.39,106,32.44,13.44,57.47,3.32,63.83-22.47C242.52,531.28,224.21,532.76,202.63,523.82Z"/><g class="cls-3"><g class="cls-3"><path class="cls-2" d="M316.58,509.8,372,545.2c-2.39-1.52-7,.29-12.38,5.32l-55.45-35.4C309.55,510.08,314.2,508.27,316.58,509.8Z"/><g class="cls-85"><path class="cls-2" d="M359.65,550.52l-55.45-35.4c5.35-5,10-6.85,12.38-5.32L372,545.2c-2.39-1.52-7,.29-12.38,5.32Z"/></g></g><g class="cls-3"><g class="cls-86"><path class="cls-2" d="M347.18,580.29,295,547c-1.1-.71-1.15-2.18-1.71-4.25-1.39-5.08,0-17.42,11-27.58l55.45,35.4c-7.81,7.35-14.16,18.78-14.18,25.53,0,2.13.61,3.54,1.71,4.24Z"/></g></g><path class="cls-87" d="M359.65,550.52c7.81-7.35,14.12-7.83,14.09-1.08s-6.37,18.18-14.18,25.53-14.12,7.83-14.09,1.08S351.84,557.87,359.65,550.52Z"/></g><g class="cls-3"><path class="cls-88" d="M370.34,521.75c-4.39-2.8-12.92.53-22.74,9.78-14.34,13.49-26,34.48-26.05,46.88,0,3.91,1.13,6.5,3.15,7.79l178.88,112,.26-.31a6.91,6.91,0,0,1-3.5-7c.86-11.43,11.07-33.2,25.41-46.69,9.82-9.25,18.36-12.58,22.74-9.77Z"/><path class="cls-89" d="M525.75,644.16c14.34-13.49,22-14.34,27.92-3.28C561,654.7,562.85,672.17,553,686c-13.06,18.38-54.44,19.57-53.3,5C500.68,678.68,511.41,657.65,525.75,644.16Z"/></g><path class="cls-89" d="M509,665.56c6.29-10.34,9.54-12.79,9.54-12.79L339.67,539.91s-7.52,9.91-10.18,14.81C328.77,556.06,509,665.56,509,665.56Z"/><path class="cls-90" d="M643,784.37a8.42,8.42,0,0,1-5.36,3c-2.35.44-10.08,1.28-10.08,1.28-3.84.41-8.5,1.52-9.27,5.1a11,11,0,0,0-.15,2.37c.45,2,2.5,2.81,5,3.68a68.05,68.05,0,0,0,8.37,2.29,31.28,31.28,0,0,0,11.38.32s4.57-.69,6.41-.68c2,0,1.67,1.42,1.89,3.24l6.47,1.67c6.47.85,10.82-4.65,10.66-6L667,791.25Z"/><path class="cls-56" d="M647,801.47a53.23,53.23,0,0,1-12,.35c-4.87-.58-12.68-3.37-12.68-3.37-2.19-.77-4.06-2.07-4.2-3.27a4.58,4.58,0,0,0,0,1.18c.45,2,2.49,2.82,5,3.68a66.12,66.12,0,0,0,8.37,2.29,31.59,31.59,0,0,0,11.39.33l5.43-.68a3.44,3.44,0,0,1,2.41.35C650.67,802.24,650.2,801.19,647,801.47Z"/><path class="cls-56" d="M657.3,804.28l-6.41-1.66c.07.6.21,2,.28,2.59l6.46,1.67c6.48.85,10.83-4.65,10.66-6l-.32-2.61C668.13,799.63,663.78,805.13,657.3,804.28Z"/><path class="cls-91" d="M611.8,697.1l3.68,50.34a27.33,27.33,0,0,0,3.32,11.18l14.62,25.93a2.83,2.83,0,0,1,.65,3.18c-.42,1-.82,3.3-.07,4.39,1,1.46,13,7.64,25.31,4.88,7.49-1.67,8.81-5.46,7.94-7l-23.63-44.5a13.66,13.66,0,0,1-2-5.49l-.47-25.66a43.66,43.66,0,0,0,1.72-6.63c.85-7.08-2.24-17-2.24-17Z"/><path class="cls-90" d="M590.36,803a8.47,8.47,0,0,1-5.36,3c-2.35.44-10.08,1.29-10.08,1.29-3.83.42-8.49,1.54-9.25,5.11a11.07,11.07,0,0,0-.15,2.38c.46,2,2.5,2.81,5,3.67a69.35,69.35,0,0,0,8.38,2.28,31.45,31.45,0,0,0,11.38.3,61.89,61.89,0,0,1,6.4-.68c2,0,1.69,1.41,1.9,3.23l6.47,1.66c6.48.84,10.82-4.67,10.66-6.06l-1.63-13.56Z"/><path class="cls-56" d="M594.39,820.09a52.17,52.17,0,0,1-11.95.37c-4.87-.57-12.68-3.35-12.68-3.35-2.2-.76-4.07-2.06-4.21-3.27a4.66,4.66,0,0,0,0,1.19c.45,2,2.49,2.81,5,3.67A67.34,67.34,0,0,0,578.9,821a31.53,31.53,0,0,0,11.39.31l5.42-.69c1.21-.16,2.4.15,2.42.36C598.09,820.86,597.62,819.81,594.39,820.09Z"/><path class="cls-56" d="M604.72,822.89l-6.41-1.65c.07.6.21,2,.28,2.59l6.47,1.67c6.47.83,10.81-4.67,10.65-6.07l-.33-2.6C615.55,818.23,611.2,823.73,604.72,822.89Z"/><path class="cls-56" d="M593.56,707.47l-13.29,39.75a23.08,23.08,0,0,0-.83,11.51l7.43,40.87a4.18,4.18,0,0,1-2.66,4.12c-1,.43-1.29,2.17-1,3.46.36,1.71,10.11,10.41,22.79,10.09,6.76-.17,9.66-3.5,10.11-5l-7.85-49.78a9.25,9.25,0,0,1,.89-5.61l16.76-33.12a18.9,18.9,0,0,0,5.56-4.78c8-10.39,7.58-25.25,7.58-25.25Z"/><path class="cls-92" d="M563,576.41l-12.83.52,2.73,31.43c.6,9,4.61,10.38,7.49,10.4,6,0,12.6-3.19,15.94-5.08,6.45-3.65,6.29-14.2,6.34-15l2-21Z"/><path class="cls-92" d="M595.12,631.36l-7.88-14.84-11-15.94-13.73,9.61,9.57,15.93c1.08,2.38-.4,3.76-.81,6.33L569,646.38c-.53,3.35-2.25,9,1.11,16.45l18.48,40.74,37.08-9.7-24.53-54.08A26.72,26.72,0,0,0,595.12,631.36Z"/><path class="cls-93" d="M553.06,572.71c-7.2,3.75-6.85,9.38-2,13.35,2.22,1.81,4.13,6.45,4.56,10l.44,3.31c-.05,1.21,1.64,3,2.56,1.21,1-2-.49-3.46.44-4.46s3.57-1.37,6,5.36l1.29,5.21c2.31,5.91,7.45,6.29,11.17,5.55,0,0,3.74-1,5.61-2.65.92-.84,6.43-9.29,7.55-12.26,5.7-15-1.11-34.12-25.87-29A41.84,41.84,0,0,0,553.06,572.71Z"/><path class="cls-58" d="M567.33,642.73c-1.87,4.68-3.93,10.18,1.33,21.79l16.67,54.61c.91,2,3.23,7.45,14.86,4.59,3.64-.9,15.8-7,22.41-12.61,2.7-2.3,19.33-16.93,17.4-21.17l-28.39-55.77c-9.67-20-23.69-19.26-23.69-19.26l-12.35,10.78Z"/><path class="cls-94" d="M583.27,612.07c1.84-1.29,2.51-1.17,3.45-.14a24.52,24.52,0,0,0,1.93,2c.82.77.38,1,.38,1s-9,6.89-14.42,14.94c-3.83,5.72-4.1,6.23-4.1,6.23l-.52-4.47c-.54-3.78,2-8.78,7-13.84A66.17,66.17,0,0,1,583.27,612.07Z"/><path class="cls-95" d="M559.25,595.69a4.7,4.7,0,0,1,3.43,3.49,4.56,4.56,0,0,1-3.15,5.87s.26-5,.25-5.91A32.15,32.15,0,0,0,559.25,595.69Z"/><path class="cls-61" d="M558,594.55s-1.54-.13-.54,2a10,10,0,0,1,1.19,4.59c0,1.08-.42,4.3-.42,4.3s.9,1.37,1.92-.56a12.25,12.25,0,0,0,.91-5C561.1,599,559.71,594.15,558,594.55Z"/><path class="cls-61" d="M505.92,688.3c-2.37,1.08-5.46-1.26-6.5-3.31-.35-.72-5,.88-7.22.58a2.06,2.06,0,0,1-1.73-3c.29-.39,7.75-1.47,9.61-1.8,6.22-1.11,7.48.91,8.51,3S508.3,687.22,505.92,688.3Z"/><path class="cls-56" d="M513.54,693.81c6.28-2.1,33.21-1.17,40.57-4.75,8.08-3.93,28.6-25.37,28.6-25.37s11.9-12.66,3.42-20.63c-5.9-5.56-15-4-18.72,1.44-3.15,4.54-24,29.42-24,29.42l-29.52,5.48S512.43,694.19,513.54,693.81Z"/><path class="cls-61" d="M511.21,689.07l-2.92-6-8.5,1.12-1.21.56-8.44,4.59s-6.56-4.19-4.24.56a35.53,35.53,0,0,0,4.79,6.67c2.08,4.25,6.64,1.93,6.64,1.93l10-3.28C510,694.13,512.54,691.8,511.21,689.07Z"/><path class="cls-94" d="M508.63,679.6c-1.16.29-2.77,3.3-2.18,6.64.75,4.32,2.15,6.1,2.15,6.1,1.26,1.78,2.37,2.64,3.86,2.44,0,0,5.53-.75,7.26-1.06,1.11-.2,1-.71,1-.71a4.84,4.84,0,0,1-1.24,0c-1.32-.36-3.36-1.77-4.65-5.89-2-6.47,1.8-8.24,1.8-8.24-.25-1-.79-1.16-1.93-.82Z"/><path class="cls-56" d="M79,453.29a13,13,0,0,1,3,3.46,4.74,4.74,0,0,1-.12,4.88c-4,6-15.65,23.22-32.24,36-14.55,11.24-30.48,21.25-30.48,21.25s-8.63,2.45-11.22-2.46c-3.08-5.85-7-17,8.11-25.57,1.61-.92,13.66-6.24,20.76-11.48a245.34,245.34,0,0,0,32.06-28.87S72.74,448.08,79,453.29Z"/><path class="cls-66" d="M69.41,451.3s.49-1.93,1.67-1.93,3.73.26,7.74,4A12.48,12.48,0,0,1,81.34,457c.34.73.83,2.56,0,3.16-.58.44-1.44.68-3.39.23-4.13-.93-7.64-4.68-8-5.79S69.41,451.3,69.41,451.3Z"/><polygon class="cls-63" points="75.83 461.43 79.34 454.15 71.21 449.15 68.45 453.58 75.83 461.43"/><path class="cls-67" d="M69.89,450.17s-1.28,2.71,3.41,6.87c2.48,2.21,3.85,2.81,5.64,3.22a4.78,4.78,0,0,0,2.46-.09l-1.82,1.93s-2.51.89-6.46-1.81c-5.86-4-4.57-8.34-4.57-8.34Z"/><path class="cls-63" d="M76.87,450.49c2.18-1.78,1.47-5.62,0-7.41-.51-.63,4-6,1.75-8.39,0,0-1.43,1.17-3.86,3.29-.19.17-2.55,1.62-3.11,4-1.46,6.36-1.93,7.33-.48,9.13S74.68,452.27,76.87,450.49Z"/><path class="cls-63" d="M75.4,448.93s.35-4.09,5.87-8.85,9.66-12.45,12.59-3.44-5.7,21-16.39,21.31C72.12,458.11,75.4,448.93,75.4,448.93Z"/><g class="cls-96"><path d="M478.25,762.13c12.94,3.7,15.52,13.83,5.74,22.61s-28.19,12.9-41.14,9.2L137.07,705.53c-12.94-3.7-15.52-13.83-5.74-22.61s28.19-12.9,41.14-9.2Z"/></g><path class="cls-97" d="M169.73,813.6c-7.14-3,10.2-3.58,2.64-10.88-3.23-3.12-15.43-5.34-26.44-5.44-16.79-.17-60.75,7.17-56.4,24.27,2.7,10.67,17.44,23.28,64.43,19.73,20.11-1.52,41.74-10.48,39.57-18C192.21,818.62,172.93,815,169.73,813.6Z"/><path class="cls-59" d="M144.66,808.09a9,9,0,0,0,5.67,3.28c2.49.49,10.71,1.46,10.71,1.46,4.07.48,9,1.71,9.79,5.51a11.47,11.47,0,0,1,.13,2.53c-.51,2.13-2.69,3-5.33,3.86a71.53,71.53,0,0,1-8.93,2.35,33.39,33.39,0,0,1-12.1.23,66.27,66.27,0,0,0-6.81-.79c-2.16,0-1.8,1.49-2,3.42l-6.89,1.71c-6.9.84-11.46-5.06-11.27-6.54l1.86-14.4Z"/><path class="cls-56" d="M140.2,826.21a55.49,55.49,0,0,0,12.71.5c5.18-.57,13.52-3.45,13.52-3.45,2.35-.79,4.34-2.15,4.51-3.43a5.69,5.69,0,0,1,0,1.26c-.51,2.13-2.68,3-5.33,3.86a72.38,72.38,0,0,1-8.93,2.34,33.47,33.47,0,0,1-12.11.24l-5.76-.79c-1.28-.18-2.55.14-2.58.36C136.27,827,136.79,825.89,140.2,826.21Z"/><path class="cls-56" d="M129.19,829.1l6.84-1.7c-.08.64-.24,2.13-.32,2.75l-6.89,1.72c-6.9.83-11.46-5.06-11.26-6.55l.37-2.76C117.74,824,122.3,829.93,129.19,829.1Z"/><path class="cls-59" d="M130.07,793.78a4.94,4.94,0,0,0,4.43,4.12c2.39.2,5.85.29,5.85.29,4.09-.72,9.22-.65,10.16,2.25a5.31,5.31,0,0,1,.37,1.74c-.22,2.13.58.35-2.49,3a75.52,75.52,0,0,1-9.43,5.79c-4.53,2-6.86,2.09-8.33,1.94a20.83,20.83,0,0,0-4.76-.33c-2,.24-1.51,2.67-1.51,4.58l-6.25,2.45c-6.36,1.61-11.34-3.63-11.34-5.09V799.2Z"/><path class="cls-56" d="M128.1,812c1.75,0,3.78-.31,9-1.69,4.39-1.16,10.82-5.43,10.82-5.43,1.54-1.08,2.79-2.41,2.78-3.68a9.44,9.44,0,0,1,.15,1.24c.14,1.93-1.65,3-3.13,4,0,0-5,3.59-8.79,4.76-4.87,1.52-5.62,1.37-7.82,1.44l-4.63.21c-.82,0-2,.49-2,.71C124.58,813.38,124.85,812,128.1,812Z"/><path class="cls-56" d="M118.11,817.86l6.2-2.43c0,.62,0,1.28,0,1.89l-6.25,2.46c-6.36,1.59-11.34-3.63-11.34-5.1v-1.92C106.77,814.23,111.75,819.45,118.11,817.86Z"/><path class="cls-61" d="M109.05,710.05c.14,2.65,4,4.22,6.54,4.1.89,0,1.68,4.92,3.08,6.71a2.39,2.39,0,0,0,3.85,0c.24-.46-2.47-7.63-3.09-9.45-2-6.09-4.67-6.19-7.22-6.07S108.91,707.39,109.05,710.05Z"/><path class="cls-98" d="M109.49,704.6c-2.87,0-8.41-5.17-8.41-5.17l-.33-1.85C99.58,691,94.3,668.34,94,660c-.31-9.16,2.66-34,2.66-34s1.52-22.13,17.2-19.4c8.69,1.51,4.25,12.38,4.34,19.74.07,5.78-3,35.14-3,35.14l1.94,36.08S115.09,704.55,109.49,704.6Z"/><path class="cls-61" d="M105.62,705.74l7.34-.42,3.2,8.12.06,1.36-.55,10.85s.17,5.23-5.68,5.58c-3.82.22-.42,0-.42,0-5.23.3-6-5-6-5l-2.08-13.88C101.25,709.4,102.26,705.94,105.62,705.74Z"/><path class="cls-69" d="M118.61,705.57c0,1.22-2.79,3.63-6.55,4-4.89.47-7.2-.38-7.2-.38-2.27-.73-3.51-1.57-3.7-3.08,0,0-.76-5.6-.91-7.37-.08-1.14.5-1.15.5-1.15a4.53,4.53,0,0,0,.31,1.23c.75,1.18,2.85,2.77,7.65,2.87,7.56.17,8.4-4.07,8.4-4.07,1.1,0,1.47.45,1.43,1.66Z"/><path class="cls-63" d="M103.37,705.91s-3.43-15.29,16.51-15.29c15.8,0,15.8,15.92,15.8,15.92l-8,96.73H108Z"/><path class="cls-99" d="M124.75,557.54l8.4-1.37,5.16,1.29,8.42,26.72c3,8.73-.31,11.42-3,12.45-5.64,2.13-11.85,3.06-15.74,2.44-7.53-1.18-12.77-12.84-13.15-13.63L104.74,566.3Z"/><path class="cls-99" d="M115.8,625l.06-17.9,2.59-20.1,19.79,4.31L136,610.69c0,2.77,2,3.52,3.59,5.86l8.37,12.71c2,3.06,6.2,7.93,6.2,16.5v47.16l-40.5,5.35v-62.6A27.18,27.18,0,0,1,115.8,625Z"/><path class="cls-100" d="M140.87,681.85v8.77c0,6.52-1.64,17.57-1.64,17.57l-31.56,1.14c-4-.76-5.48-5.91-5.48-11.1V681.85Z"/><path class="cls-92" d="M103.37,705.91s1.31-10.63,15.22-10.63c1.86,0,0,0,5.49,0,13.29,0,15.15,12.91,15.15,12.91l-8.29,94.71-21.11.37Z"/><path class="cls-101" d="M138.26,555.47c4.33,1.94,1.83,7.63,1.83,7.63s.47-.08-1.05-.38-.78,2.77-.72,2.9,1.83,11.17,1.83,11.17c.52,1.12-.39,3.38-1.94,2-1.73-1.49-.89-3.44-2.16-4.06s-3.06.2-4.91,7.63c0,0-4.16,12-8.22,14.25a7.3,7.3,0,0,1-7.06-.23c-1.11-.62-6.42-7.38-9.44-12.11-6.51-10.18-9.66-26.77,13.45-30.9C129.21,551.74,138.26,555.47,138.26,555.47Z"/><path class="cls-98" d="M139.1,698.3l-.86,109.87a30.71,30.71,0,0,1-19.18,6.36c-6.7,0-13.24-4.1-13.42-5.87l-4-112.2Z"/><path class="cls-56" d="M148.14,709l-1.95,98c.05-.06.23,2.27,1.26,2.82s1,2.49.45,3.79c-.68,1.73-7.07,11.39-20.54,10.73-4.11-.2-8.94-1.68-9.14-3.36l-6.73-111.9Z"/><path class="cls-69" d="M118.83,601.44c-2.37-.53-3-.14-3.43,1.23a22,22,0,0,1-1,2.75c-.45,1.09.08,1.16.08,1.16s11.88,3.11,20.7,8.82c6.28,4.05,6.82,4.79,6.82,4.79l-1.53-4.92c-1.14-3.91-5.9-7.75-13-10.72A73.7,73.7,0,0,0,118.83,601.44Z"/><path class="cls-102" d="M135.85,573.69a5.29,5.29,0,0,0-2.3,4.65,4,4,0,0,0,2.38,3.8,5.25,5.25,0,0,0,2.88.63s-2.18-4.62-2.53-5.5A17.85,17.85,0,0,1,135.85,573.69Z"/><path class="cls-61" d="M136.47,573s1.4-.67,1.29,1.7a10.06,10.06,0,0,0,.66,4.75c.43,1,2.08,3.92,2.08,3.92s-.32,1.61-2,.14a13,13,0,0,1-2.81-4.4C135.28,578.19,134.72,573.17,136.47,573Z"/><path class="cls-103" d="M140.11,718.19c-.75,2.56,2.4,5.2,4.86,5.84.85.23-2.55,4.11,1,4.82,0,0,1.59,1.3,3.49-1.23.16-.19,2.84-3.31,1.6-5.42-1.65-2.81-3.42-6.29-5-7.37C144,713.42,140.86,715.63,140.11,718.19Z"/><path class="cls-104" d="M137.62,720.18s-3.64,3.89-13.23.68-19.49-11.1-19.49-11.1l1.22-5.49s24.81,10.7,29.38,9.23S137.62,720.18,137.62,720.18Z"/><path class="cls-56" d="M149.2,625.61c5.48,4.06,7.13,7.77,7.13,21.2L155,708c0,2.33.15,8.56-12.48,10.41-4,.58-9.64,2.24-18.57-.59-3.65-1.15-22.84-9.54-22.84-14.45l-.6-66.92c.28-7.91.79-17.65,2.13-21.84,3-9.54,11.87-8.38,11.87-8.38s15,4.62,22.92,10.3C141.21,619.29,141.43,619.7,149.2,625.61Z"/><path class="cls-99" d="M143.87,715l-6.25,3-3.49-1a14.07,14.07,0,0,0,.08,9.33c1.07,2.95,1.23,3.73,1.6,5,.45,1.59.76,2.6.76,2.6s.07,1,2,.73c2.19-.34,6.25-2.76,6.25-2.76a13.72,13.72,0,0,0,2.5-.21c3.58-1.16,2.67-6.21,2.67-6.21l-2-8.68C147.83,715.69,147.24,715,143.87,715Z"/><path class="cls-105" d="M140.22,722.32a10.15,10.15,0,0,1-4.79-.51s-2.63-.92-3-3.09c-1-6.53-3-35.21-2.83-43.39.2-9,4.6-32.45,4.6-32.45s1.67-17,12.27-16.64c8.83.33,10,8,9.67,15.17-.26,5.66-6.32,36.54-6.32,36.54L149.39,718S146.84,721.57,140.22,722.32Z"/></g></g></svg>